<?xml version="1.0" standalone="no"?>
 <!DOCTYPE svg PUBLIC "-//W3C//DTD SVG 1.1//EN" 
 "http://www.w3.org/Graphics/SVG/1.1/DTD/svg11.dtd"> 
<svg xmlns="http://www.w3.org/2000/svg" version="1.1" 
    width="29.7002cm" height="21.0007cm" viewBox="0 0 116930 82680 ">
<title>SVG Picture created as KAmp_TPA3116D2-F.SilkS.svg date 2018/01/17 14:32:36 </title>
  <desc>Picture generated by PCBNEW </desc>
<g style="fill:#000000; fill-opacity:1;stroke:#000000; stroke-opacity:1;
stroke-linecap:round; stroke-linejoin:round; "
 transform="translate(0 0) scale(1 1)">
</g>
<g style="fill:#000000; fill-opacity:0.0; 
stroke:#000000; stroke-width:-0.000393701; stroke-opacity:1; 
stroke-linecap:round; stroke-linejoin:round;">
</g>
<g style="fill:#000000; fill-opacity:0.0; 
stroke:#000000; stroke-width:196.85; stroke-opacity:1; 
stroke-linecap:round; stroke-linejoin:round;">
<path d="M38498 20697
L38685 21222
L38873 20697
" />
<path d="M39323 20434
L39398 20434
L39473 20472
L39510 20509
L39548 20584
L39585 20734
L39585 20922
L39548 21072
L39510 21147
L39473 21184
L39398 21222
L39323 21222
L39248 21184
L39210 21147
L39173 21072
L39135 20922
L39135 20734
L39173 20584
L39210 20509
L39248 20472
L39323 20434
" />
<path d="M39923 21147
L39960 21184
L39923 21222
L39885 21184
L39923 21147
L39923 21222
" />
<path d="M40710 21222
L40260 21222
" />
<path d="M40485 21222
L40485 20434
L40410 20547
L40335 20622
L40260 20659
" />
<path d="M23809 21222
L23809 20434
" />
<path d="M24259 21222
L23922 20772
" />
<path d="M24259 20434
L23809 20884
" />
<path d="M24559 20997
L24934 20997
" />
<path d="M24484 21222
L24746 20434
L25009 21222
" />
<path d="M25271 21222
L25271 20697
" />
<path d="M25271 20772
L25309 20734
L25384 20697
L25496 20697
L25571 20734
L25609 20809
L25609 21222
" />
<path d="M25609 20809
L25646 20734
L25721 20697
L25834 20697
L25909 20734
L25946 20809
L25946 21222
" />
<path d="M26321 20697
L26321 21484
" />
<path d="M26321 20734
L26396 20697
L26546 20697
L26621 20734
L26659 20772
L26696 20847
L26696 21072
L26659 21147
L26621 21184
L26546 21222
L26396 21222
L26321 21184
" />
<path d="M23697 21812
L24146 21812
" />
<path d="M23922 22600
L23922 21812
" />
<path d="M24409 22600
L24409 21812
L24709 21812
L24784 21850
L24821 21887
L24859 21962
L24859 22075
L24821 22150
L24784 22187
L24709 22225
L24409 22225
" />
<path d="M25159 22375
L25534 22375
" />
<path d="M25084 22600
L25346 21812
L25609 22600
" />
<path d="M25796 21812
L26284 21812
L26021 22112
L26134 22112
L26209 22150
L26246 22187
L26284 22262
L26284 22450
L26246 22525
L26209 22562
L26134 22600
L25909 22600
L25834 22562
L25796 22525
" />
<path d="M27034 22600
L26584 22600
" />
<path d="M26809 22600
L26809 21812
L26734 21925
L26659 22000
L26584 22037
" />
<path d="M27784 22600
L27334 22600
" />
<path d="M27559 22600
L27559 21812
L27484 21925
L27409 22000
L27334 22037
" />
<path d="M28458 21812
L28308 21812
L28233 21850
L28196 21887
L28121 22000
L28083 22150
L28083 22450
L28121 22525
L28158 22562
L28233 22600
L28383 22600
L28458 22562
L28496 22525
L28533 22450
L28533 22262
L28496 22187
L28458 22150
L28383 22112
L28233 22112
L28158 22150
L28121 22187
L28083 22262
" />
<path d="M28871 22600
L28871 21812
L29058 21812
L29171 21850
L29246 21925
L29283 22000
L29321 22150
L29321 22262
L29283 22412
L29246 22487
L29171 22562
L29058 22600
L28871 22600
" />
<path d="M29621 21887
L29658 21850
L29733 21812
L29921 21812
L29996 21850
L30033 21887
L30071 21962
L30071 22037
L30033 22150
L29583 22600
L30071 22600
" />
</g>
<g style="fill:#000000; fill-opacity:0.0; 
stroke:#000000; stroke-width:78.7402; stroke-opacity:1; 
stroke-linecap:round; stroke-linejoin:round;">
<path d="M20467 28346
L20430 28327
L20374 28327
L20317 28346
L20280 28383
L20261 28421
L20242 28496
L20242 28552
L20261 28627
L20280 28665
L20317 28702
L20374 28721
L20411 28721
L20467 28702
L20486 28683
L20486 28552
L20411 28552
" />
<path d="M20655 28721
L20655 28327
L20880 28721
L20880 28327
" />
<path d="M21067 28721
L21067 28327
L21161 28327
L21217 28346
L21255 28383
L21273 28421
L21292 28496
L21292 28552
L21273 28627
L21255 28665
L21217 28702
L21161 28721
L21067 28721
" />
<path d="M20102 27737
L20102 27343
L20233 27624
L20364 27343
L20364 27737
" />
<path d="M20552 27343
L20552 27662
L20570 27699
L20589 27718
L20627 27737
L20702 27737
L20739 27718
L20758 27699
L20777 27662
L20777 27343
" />
<path d="M20908 27343
L21133 27343
" />
<path d="M21020 27737
L21020 27343
" />
<path d="M21264 27530
L21395 27530
" />
<path d="M21452 27737
L21264 27737
L21264 27343
L21452 27343
" />
<path d="M20238 26546
L20106 26546
" />
<path d="M20106 26752
L20106 26359
L20294 26359
" />
<path d="M20425 26640
L20613 26640
" />
<path d="M20388 26752
L20519 26359
L20650 26752
" />
<path d="M20781 26359
L20781 26677
L20800 26715
L20819 26734
L20856 26752
L20931 26752
L20969 26734
L20988 26715
L21006 26677
L21006 26359
" />
<path d="M21381 26752
L21194 26752
L21194 26359
" />
<path d="M21456 26359
L21681 26359
" />
<path d="M21569 26752
L21569 26359
" />
<path d="M20013 26291
L21719 26291
" />
<path d="M20556 25749
L20613 25768
L20706 25768
L20744 25749
L20763 25731
L20781 25693
L20781 25656
L20763 25618
L20744 25599
L20706 25581
L20631 25562
L20594 25543
L20575 25524
L20556 25487
L20556 25449
L20575 25412
L20594 25393
L20631 25374
L20725 25374
L20781 25393
" />
<path d="M20950 25768
L20950 25374
L21044 25374
L21100 25393
L21137 25431
L21156 25468
L21175 25543
L21175 25599
L21156 25674
L21137 25712
L21100 25749
L21044 25768
L20950 25768
" />
<path d="M20481 25307
L21250 25307
" />
</g>
<g style="fill:#000000; fill-opacity:0.0; 
stroke:#000000; stroke-width:118.11; stroke-opacity:1; 
stroke-linecap:round; stroke-linejoin:round;">
<path d="M20795 33675
L21077 33478
" />
<path d="M20795 33338
L21386 33338
L21386 33562
L21358 33619
L21330 33647
L21273 33675
L21189 33675
L21133 33647
L21105 33619
L21077 33562
L21077 33338
" />
<path d="M21020 33928
L21020 34378
" />
<path d="M20795 32100
L21077 31903
" />
<path d="M20795 31763
L21386 31763
L21386 31988
L21358 32044
L21330 32072
L21273 32100
L21189 32100
L21133 32072
L21105 32044
L21077 31988
L21077 31763
" />
<path d="M21020 32353
L21020 32803
" />
<path d="M20795 32578
L21245 32578
" />
<path d="M20795 37612
L20795 37331
L21386 37331
" />
<path d="M21020 37809
L21020 38259
" />
<path d="M20795 36037
L20795 35756
L21386 35756
" />
<path d="M21020 36234
L21020 36684
" />
<path d="M20795 36459
L21245 36459
" />
<path d="M53810 29105
L53922 29105
L53979 29133
L54035 29190
L54063 29302
L54063 29499
L54035 29611
L53979 29668
L53922 29696
L53810 29696
L53754 29668
L53697 29611
L53669 29499
L53669 29302
L53697 29190
L53754 29133
L53810 29105
" />
<path d="M54316 29105
L54316 29583
L54344 29640
L54372 29668
L54429 29696
L54541 29696
L54597 29668
L54625 29640
L54654 29583
L54654 29105
" />
<path d="M54850 29105
L55188 29105
" />
<path d="M55019 29696
L55019 29105
" />
<path d="M55385 29696
L55385 29105
L55610 29105
L55666 29133
L55694 29161
L55722 29218
L55722 29302
L55694 29358
L55666 29386
L55610 29415
L55385 29415
" />
<path d="M55975 29105
L55975 29583
L56003 29640
L56032 29668
L56088 29696
L56200 29696
L56257 29668
L56285 29640
L56313 29583
L56313 29105
" />
<path d="M56510 29105
L56847 29105
" />
<path d="M56678 29696
L56678 29105
" />
<path d="M57016 29668
L57100 29696
L57241 29696
L57297 29668
L57325 29640
L57353 29583
L57353 29527
L57325 29471
L57297 29443
L57241 29415
L57128 29386
L57072 29358
L57044 29330
L57016 29274
L57016 29218
L57044 29161
L57072 29133
L57128 29105
L57269 29105
L57353 29133
" />
</g>
<g style="fill:#000000; fill-opacity:0.0; 
stroke:#000000; stroke-width:196.85; stroke-opacity:1; 
stroke-linecap:round; stroke-linejoin:round;">
<path d="M58131 36562
L58131 36937
L57344 36937
" />
<path d="M57831 36300
L57831 35700
" />
<path d="M58131 36000
L57531 36000
" />
<path d="M58131 38727
L58131 39102
L57344 39102
" />
<path d="M57831 38465
L57831 37865
" />
<path d="M58131 33806
L57756 34069
" />
<path d="M58131 34256
L57344 34256
L57344 33956
L57381 33881
L57419 33844
L57494 33806
L57606 33806
L57681 33844
L57719 33881
L57756 33956
L57756 34256
" />
<path d="M57831 33469
L57831 32869
" />
<path d="M58131 31641
L57756 31903
" />
<path d="M58131 32091
L57344 32091
L57344 31791
L57381 31716
L57419 31678
L57494 31641
L57606 31641
L57681 31678
L57719 31716
L57756 31791
L57756 32091
" />
<path d="M57831 31303
L57831 30703
" />
<path d="M58131 31003
L57531 31003
" />
<path d="M57958 27910
L57958 27010
" />
<path d="M57958 25942
L57958 25042
" />
<path d="M58408 25492
L57508 25492
" />
</g>
<g style="fill:#000000; fill-opacity:0.0; 
stroke:#000000; stroke-width:118.11; stroke-opacity:1; 
stroke-linecap:round; stroke-linejoin:round;">
<path d="M53416 27840
L52826 27840
L52826 27615
L52854 27559
L52882 27530
L52938 27502
L53023 27502
L53079 27530
L53107 27559
L53135 27615
L53135 27840
" />
<path d="M52826 27137
L52826 27024
L52854 26968
L52910 26912
L53023 26884
L53219 26884
L53332 26912
L53388 26968
L53416 27024
L53416 27137
L53388 27193
L53332 27249
L53219 27277
L53023 27277
L52910 27249
L52854 27193
L52826 27137
" />
<path d="M52826 26687
L53416 26546
L52994 26434
L53416 26321
L52826 26181
" />
<path d="M53107 25956
L53107 25759
" />
<path d="M53416 25674
L53416 25956
L52826 25956
L52826 25674
" />
<path d="M53416 25084
L53135 25281
" />
<path d="M53416 25421
L52826 25421
L52826 25196
L52854 25140
L52882 25112
L52938 25084
L53023 25084
L53079 25112
L53107 25140
L53135 25196
L53135 25421
" />
</g>
<g style="fill:#000000; fill-opacity:0.0; 
stroke:#000000; stroke-width:59.0551; stroke-opacity:1; 
stroke-linecap:round; stroke-linejoin:round;">
<circle cx="44940.7" cy="41535.3" r="154.029" /> 
<path d="M47696 41653
L47736 41693
" />
<path d="M47736 41693
L47775 41850
" />
<path d="M47775 41850
L47736 42047
" />
<path d="M47736 42047
L47657 42165
" />
<path d="M47657 42165
L47539 42323
" />
<path d="M47539 42323
L47342 42362
" />
<path d="M47342 42362
L47145 42323
" />
<path d="M47145 42323
L46987 42204
" />
<path d="M46987 42204
L46948 42165
" />
<path d="M46948 42165
L46712 42323
" />
<path d="M46712 42323
L46397 42441
" />
<path d="M46397 42441
L46003 42519
" />
<path d="M46003 42519
L45531 42519
" />
<path d="M45531 42519
L45176 42441
" />
<path d="M45176 42441
L44940 42362
" />
<path d="M44940 42362
L44743 42283
" />
<path d="M44743 42283
L44586 42204
" />
<path d="M44586 42204
L44468 42283
" />
<path d="M44468 42283
L44232 42362
" />
<path d="M44232 42362
L44074 42323
" />
<path d="M44074 42323
L43956 42244
" />
<path d="M43956 42244
L43838 42165
" />
<path d="M43838 42165
L43759 41968
" />
<path d="M43759 41968
L43798 41771
" />
<path d="M43798 41771
L43877 41614
" />
<path d="M47696 39055
L47736 38937
" />
<path d="M47736 38937
L47775 38779
" />
<path d="M47775 38779
L47736 38661
" />
<path d="M47736 38661
L47657 38504
" />
<path d="M47657 38504
L47539 38425
" />
<path d="M47539 38425
L47421 38346
" />
<path d="M47421 38346
L47302 38346
" />
<path d="M47302 38346
L47184 38385
" />
<path d="M47184 38385
L47066 38425
" />
<path d="M47066 38425
L46948 38543
" />
<path d="M46948 38543
L46791 38425
" />
<path d="M46791 38425
L46633 38346
" />
<path d="M46633 38346
L46436 38267
" />
<path d="M46436 38267
L46121 38189
" />
<path d="M46121 38189
L45767 38149
" />
<path d="M45767 38149
L45452 38189
" />
<path d="M45452 38189
L45098 38267
" />
<path d="M45098 38267
L44743 38425
" />
<path d="M44743 38425
L44586 38504
" />
<path d="M44586 38504
L44468 38425
" />
<path d="M44468 38425
L44310 38346
" />
<path d="M44310 38346
L44113 38385
" />
<path d="M44113 38385
L43956 38464
" />
<path d="M43956 38464
L43838 38582
" />
<path d="M43838 38582
L43759 38779
" />
<path d="M43759 38779
L43798 38976
" />
<path d="M43798 38976
L43877 39094
" />
<path d="M43326 41653
L43326 42795
" />
<path d="M43326 42795
L48208 42795
" />
<path d="M48208 42795
L48208 41653
" />
<path d="M48208 37913
L43326 37913
" />
<path d="M43326 37913
L43326 39055
" />
<path d="M48208 37913
L48208 39055
" />
</g>
<g style="fill:#000000; fill-opacity:0.0; 
stroke:#000000; stroke-width:47.2441; stroke-opacity:1; 
stroke-linecap:round; stroke-linejoin:round;">
<path d="M54511 39417
L54511 35417
" />
<path d="M54011 39417
L57011 39417
" />
<path d="M57011 39417
L57011 35417
" />
<path d="M57011 35417
L54011 35417
" />
<path d="M54011 35417
L54011 39417
" />
<path d="M27901 31830
L27901 31358
" />
<path d="M28594 31358
L28594 31830
" />
<path d="M24862 32244
L25137 32244
" />
<path d="M25137 32716
L24862 32716
" />
<path d="M24862 33031
L25137 33031
" />
<path d="M25137 33503
L24862 33503
" />
<path d="M24862 34606
L25137 34606
" />
<path d="M25137 35078
L24862 35078
" />
<path d="M24862 35393
L25137 35393
" />
<path d="M25137 35866
L24862 35866
" />
<path d="M24960 39507
L24960 39232
" />
<path d="M25433 39232
L25433 39507
" />
<path d="M29192 31240
L29192 30964
" />
<path d="M29665 30964
L29665 31240
" />
<path d="M29783 31240
L29783 30964
" />
<path d="M30255 30964
L30255 31240
" />
<path d="M36456 28307
L36456 28582
" />
<path d="M35984 28582
L35984 28307
" />
<path d="M35984 30944
L35984 30669
" />
<path d="M36456 30669
L36456 30944
" />
<path d="M36456 32047
L36456 32322
" />
<path d="M35984 32322
L35984 32047
" />
<path d="M35984 34685
L35984 34409
" />
<path d="M36456 34409
L36456 34685
" />
<path d="M34507 28503
L34783 28503
" />
<path d="M34783 28976
L34507 28976
" />
<path d="M34507 34015
L34783 34015
" />
<path d="M34783 34488
L34507 34488
" />
<path d="M36574 28582
L36574 28307
" />
<path d="M37047 28307
L37047 28582
" />
<path d="M37047 30669
L37047 30944
" />
<path d="M36574 30944
L36574 30669
" />
<path d="M36574 32322
L36574 32047
" />
<path d="M37047 32047
L37047 32322
" />
<path d="M37047 34409
L37047 34685
" />
<path d="M36574 34685
L36574 34409
" />
<path d="M34507 27913
L34783 27913
" />
<path d="M34783 28385
L34507 28385
" />
<path d="M34507 34606
L34783 34606
" />
<path d="M34783 35078
L34507 35078
" />
<circle cx="39665.4" cy="26181.1" r="1610.24" /> 
<path d="M41259 26181
L38070 26181
" />
<path d="M41259 26196
L38070 26196
" />
<path d="M41259 26212
L38070 26212
" />
<path d="M41259 26228
L38071 26228
" />
<path d="M41258 26244
L38072 26244
" />
<path d="M41258 26259
L38072 26259
" />
<path d="M41257 26275
L38073 26275
" />
<path d="M41256 26291
L38074 26291
" />
<path d="M41255 26307
L38075 26307
" />
<path d="M41253 26322
L38076 26322
" />
<path d="M41252 26338
L38078 26338
" />
<path d="M41250 26354
L38079 26354
" />
<path d="M41248 26370
L38081 26370
" />
<path d="M41246 26385
L38083 26385
" />
<path d="M41244 26401
L38085 26401
" />
<path d="M41242 26417
L38088 26417
" />
<path d="M41240 26433
L38090 26433
" />
<path d="M41237 26448
L38092 26448
" />
<path d="M41235 26464
L38095 26464
" />
<path d="M41231 26480
L38098 26480
" />
<path d="M41228 26496
L40051 26496
" />
<path d="M39279 26496
L38101 26496
" />
<path d="M41225 26512
L40051 26512
" />
<path d="M39279 26512
L38105 26512
" />
<path d="M41222 26527
L40051 26527
" />
<path d="M39279 26527
L38108 26527
" />
<path d="M41218 26543
L40051 26543
" />
<path d="M39279 26543
L38111 26543
" />
<path d="M41214 26559
L40051 26559
" />
<path d="M39279 26559
L38115 26559
" />
<path d="M41211 26575
L40051 26575
" />
<path d="M39279 26575
L38119 26575
" />
<path d="M41207 26590
L40051 26590
" />
<path d="M39279 26590
L38123 26590
" />
<path d="M41202 26606
L40051 26606
" />
<path d="M39279 26606
L38127 26606
" />
<path d="M41198 26622
L40051 26622
" />
<path d="M39279 26622
L38132 26622
" />
<path d="M41194 26638
L40051 26638
" />
<path d="M39279 26638
L38136 26638
" />
<path d="M41188 26653
L40051 26653
" />
<path d="M39279 26653
L38141 26653
" />
<path d="M41184 26669
L40051 26669
" />
<path d="M39279 26669
L38146 26669
" />
<path d="M41179 26685
L40051 26685
" />
<path d="M39279 26685
L38151 26685
" />
<path d="M41174 26701
L40051 26701
" />
<path d="M39279 26701
L38156 26701
" />
<path d="M41168 26716
L40051 26716
" />
<path d="M39279 26716
L38162 26716
" />
<path d="M41162 26732
L40051 26732
" />
<path d="M39279 26732
L38168 26732
" />
<path d="M41157 26748
L40051 26748
" />
<path d="M39279 26748
L38173 26748
" />
<path d="M41150 26764
L40051 26764
" />
<path d="M39279 26764
L38179 26764
" />
<path d="M41144 26779
L40051 26779
" />
<path d="M39279 26779
L38185 26779
" />
<path d="M41138 26795
L40051 26795
" />
<path d="M39279 26795
L38192 26795
" />
<path d="M41131 26811
L40051 26811
" />
<path d="M39279 26811
L38198 26811
" />
<path d="M41124 26827
L40051 26827
" />
<path d="M39279 26827
L38205 26827
" />
<path d="M41118 26842
L40051 26842
" />
<path d="M39279 26842
L38212 26842
" />
<path d="M41110 26858
L40051 26858
" />
<path d="M39279 26858
L38220 26858
" />
<path d="M41103 26874
L40051 26874
" />
<path d="M39279 26874
L38227 26874
" />
<path d="M41095 26890
L40051 26890
" />
<path d="M39279 26890
L38235 26890
" />
<path d="M41087 26905
L40051 26905
" />
<path d="M39279 26905
L38242 26905
" />
<path d="M41079 26921
L40051 26921
" />
<path d="M39279 26921
L38250 26921
" />
<path d="M41071 26937
L40051 26937
" />
<path d="M39279 26937
L38259 26937
" />
<path d="M41062 26953
L40051 26953
" />
<path d="M39279 26953
L38267 26953
" />
<path d="M41054 26968
L40051 26968
" />
<path d="M39279 26968
L38276 26968
" />
<path d="M41045 26984
L40051 26984
" />
<path d="M39279 26984
L38285 26984
" />
<path d="M41036 27000
L40051 27000
" />
<path d="M39279 27000
L38294 27000
" />
<path d="M41026 27016
L40051 27016
" />
<path d="M39279 27016
L38303 27016
" />
<path d="M41017 27031
L40051 27031
" />
<path d="M39279 27031
L38313 27031
" />
<path d="M41007 27047
L40051 27047
" />
<path d="M39279 27047
L38323 27047
" />
<path d="M40997 27063
L40051 27063
" />
<path d="M39279 27063
L38333 27063
" />
<path d="M40986 27079
L40051 27079
" />
<path d="M39279 27079
L38344 27079
" />
<path d="M40975 27094
L40051 27094
" />
<path d="M39279 27094
L38354 27094
" />
<path d="M40964 27110
L40051 27110
" />
<path d="M39279 27110
L38365 27110
" />
<path d="M40953 27126
L40051 27126
" />
<path d="M39279 27126
L38377 27126
" />
<path d="M40942 27142
L40051 27142
" />
<path d="M39279 27142
L38388 27142
" />
<path d="M40930 27157
L40051 27157
" />
<path d="M39279 27157
L38400 27157
" />
<path d="M40918 27173
L40051 27173
" />
<path d="M39279 27173
L38412 27173
" />
<path d="M40905 27189
L40051 27189
" />
<path d="M39279 27189
L38425 27189
" />
<path d="M40892 27205
L40051 27205
" />
<path d="M39279 27205
L38437 27205
" />
<path d="M40879 27220
L40051 27220
" />
<path d="M39279 27220
L38451 27220
" />
<path d="M40866 27236
L40051 27236
" />
<path d="M39279 27236
L38464 27236
" />
<path d="M40852 27252
L40051 27252
" />
<path d="M39279 27252
L38478 27252
" />
<path d="M40838 27268
L38492 27268
" />
<path d="M40823 27283
L38507 27283
" />
<path d="M40808 27299
L38522 27299
" />
<path d="M40793 27315
L38537 27315
" />
<path d="M40777 27331
L38553 27331
" />
<path d="M40761 27346
L38569 27346
" />
<path d="M40744 27362
L38586 27362
" />
<path d="M40727 27378
L38603 27378
" />
<path d="M40709 27394
L38621 27394
" />
<path d="M40690 27409
L38639 27409
" />
<path d="M40672 27425
L38658 27425
" />
<path d="M40652 27441
L38677 27441
" />
<path d="M40632 27457
L38698 27457
" />
<path d="M40611 27472
L38718 27472
" />
<path d="M40590 27488
L38740 27488
" />
<path d="M40568 27504
L38762 27504
" />
<path d="M40544 27520
L38785 27520
" />
<path d="M40520 27535
L38809 27535
" />
<path d="M40495 27551
L38835 27551
" />
<path d="M40469 27567
L38861 27567
" />
<path d="M40442 27583
L38888 27583
" />
<path d="M40414 27598
L38916 27598
" />
<path d="M40384 27614
L38946 27614
" />
<path d="M40352 27630
L38978 27630
" />
<path d="M40318 27646
L39011 27646
" />
<path d="M40283 27661
L39047 27661
" />
<path d="M40245 27677
L39085 27677
" />
<path d="M40204 27693
L39126 27693
" />
<path d="M40159 27709
L39171 27709
" />
<path d="M40109 27724
L39221 27724
" />
<path d="M40052 27740
L39278 27740
" />
<path d="M39985 27756
L39344 27756
" />
<path d="M39900 27772
L39429 27772
" />
<path d="M39762 27787
L39568 27787
" />
<path d="M39665 24625
L39665 25098
" />
<path d="M39921 24862
L39409 24862
" />
<circle cx="39665.4" cy="36811" r="1610.24" /> 
<path d="M38070 36811
L41259 36811
" />
<path d="M38070 36795
L41259 36795
" />
<path d="M38070 36779
L41259 36779
" />
<path d="M38071 36763
L41259 36763
" />
<path d="M38072 36748
L41258 36748
" />
<path d="M38072 36732
L41258 36732
" />
<path d="M38073 36716
L41257 36716
" />
<path d="M38074 36700
L41256 36700
" />
<path d="M38075 36685
L41255 36685
" />
<path d="M38076 36669
L41253 36669
" />
<path d="M38078 36653
L41252 36653
" />
<path d="M38079 36637
L41250 36637
" />
<path d="M38081 36622
L41248 36622
" />
<path d="M38083 36606
L41246 36606
" />
<path d="M38085 36590
L41244 36590
" />
<path d="M38088 36574
L41242 36574
" />
<path d="M38090 36559
L41240 36559
" />
<path d="M38092 36543
L41237 36543
" />
<path d="M38095 36527
L41235 36527
" />
<path d="M38098 36511
L41231 36511
" />
<path d="M38101 36495
L39279 36495
" />
<path d="M40051 36495
L41228 36495
" />
<path d="M38105 36479
L39279 36479
" />
<path d="M40051 36479
L41225 36479
" />
<path d="M38108 36464
L39279 36464
" />
<path d="M40051 36464
L41222 36464
" />
<path d="M38111 36448
L39279 36448
" />
<path d="M40051 36448
L41218 36448
" />
<path d="M38115 36432
L39279 36432
" />
<path d="M40051 36432
L41214 36432
" />
<path d="M38119 36416
L39279 36416
" />
<path d="M40051 36416
L41211 36416
" />
<path d="M38123 36401
L39279 36401
" />
<path d="M40051 36401
L41207 36401
" />
<path d="M38127 36385
L39279 36385
" />
<path d="M40051 36385
L41202 36385
" />
<path d="M38132 36369
L39279 36369
" />
<path d="M40051 36369
L41198 36369
" />
<path d="M38136 36353
L39279 36353
" />
<path d="M40051 36353
L41194 36353
" />
<path d="M38141 36338
L39279 36338
" />
<path d="M40051 36338
L41188 36338
" />
<path d="M38146 36322
L39279 36322
" />
<path d="M40051 36322
L41184 36322
" />
<path d="M38151 36306
L39279 36306
" />
<path d="M40051 36306
L41179 36306
" />
<path d="M38156 36290
L39279 36290
" />
<path d="M40051 36290
L41174 36290
" />
<path d="M38162 36275
L39279 36275
" />
<path d="M40051 36275
L41168 36275
" />
<path d="M38168 36259
L39279 36259
" />
<path d="M40051 36259
L41162 36259
" />
<path d="M38173 36243
L39279 36243
" />
<path d="M40051 36243
L41157 36243
" />
<path d="M38179 36227
L39279 36227
" />
<path d="M40051 36227
L41150 36227
" />
<path d="M38185 36212
L39279 36212
" />
<path d="M40051 36212
L41144 36212
" />
<path d="M38192 36196
L39279 36196
" />
<path d="M40051 36196
L41138 36196
" />
<path d="M38198 36180
L39279 36180
" />
<path d="M40051 36180
L41131 36180
" />
<path d="M38205 36164
L39279 36164
" />
<path d="M40051 36164
L41124 36164
" />
<path d="M38212 36149
L39279 36149
" />
<path d="M40051 36149
L41118 36149
" />
<path d="M38220 36133
L39279 36133
" />
<path d="M40051 36133
L41110 36133
" />
<path d="M38227 36117
L39279 36117
" />
<path d="M40051 36117
L41103 36117
" />
<path d="M38235 36101
L39279 36101
" />
<path d="M40051 36101
L41095 36101
" />
<path d="M38242 36086
L39279 36086
" />
<path d="M40051 36086
L41087 36086
" />
<path d="M38250 36070
L39279 36070
" />
<path d="M40051 36070
L41079 36070
" />
<path d="M38259 36054
L39279 36054
" />
<path d="M40051 36054
L41071 36054
" />
<path d="M38267 36038
L39279 36038
" />
<path d="M40051 36038
L41062 36038
" />
<path d="M38276 36023
L39279 36023
" />
<path d="M40051 36023
L41054 36023
" />
<path d="M38285 36007
L39279 36007
" />
<path d="M40051 36007
L41045 36007
" />
<path d="M38294 35991
L39279 35991
" />
<path d="M40051 35991
L41036 35991
" />
<path d="M38303 35975
L39279 35975
" />
<path d="M40051 35975
L41026 35975
" />
<path d="M38313 35960
L39279 35960
" />
<path d="M40051 35960
L41017 35960
" />
<path d="M38323 35944
L39279 35944
" />
<path d="M40051 35944
L41007 35944
" />
<path d="M38333 35928
L39279 35928
" />
<path d="M40051 35928
L40997 35928
" />
<path d="M38344 35912
L39279 35912
" />
<path d="M40051 35912
L40986 35912
" />
<path d="M38354 35897
L39279 35897
" />
<path d="M40051 35897
L40975 35897
" />
<path d="M38365 35881
L39279 35881
" />
<path d="M40051 35881
L40964 35881
" />
<path d="M38377 35865
L39279 35865
" />
<path d="M40051 35865
L40953 35865
" />
<path d="M38388 35850
L39279 35850
" />
<path d="M40051 35850
L40942 35850
" />
<path d="M38400 35834
L39279 35834
" />
<path d="M40051 35834
L40930 35834
" />
<path d="M38412 35818
L39279 35818
" />
<path d="M40051 35818
L40918 35818
" />
<path d="M38425 35802
L39279 35802
" />
<path d="M40051 35802
L40905 35802
" />
<path d="M38437 35787
L39279 35787
" />
<path d="M40051 35787
L40892 35787
" />
<path d="M38451 35771
L39279 35771
" />
<path d="M40051 35771
L40879 35771
" />
<path d="M38464 35755
L39279 35755
" />
<path d="M40051 35755
L40866 35755
" />
<path d="M38478 35739
L39279 35739
" />
<path d="M40051 35739
L40852 35739
" />
<path d="M38492 35724
L40838 35724
" />
<path d="M38507 35708
L40823 35708
" />
<path d="M38522 35692
L40808 35692
" />
<path d="M38537 35676
L40793 35676
" />
<path d="M38553 35661
L40777 35661
" />
<path d="M38569 35645
L40761 35645
" />
<path d="M38586 35629
L40744 35629
" />
<path d="M38603 35613
L40727 35613
" />
<path d="M38621 35598
L40709 35598
" />
<path d="M38639 35582
L40690 35582
" />
<path d="M38658 35566
L40672 35566
" />
<path d="M38677 35550
L40652 35550
" />
<path d="M38698 35535
L40632 35535
" />
<path d="M38718 35519
L40611 35519
" />
<path d="M38740 35503
L40590 35503
" />
<path d="M38762 35487
L40568 35487
" />
<path d="M38785 35472
L40544 35472
" />
<path d="M38809 35456
L40520 35456
" />
<path d="M38835 35440
L40495 35440
" />
<path d="M38861 35424
L40469 35424
" />
<path d="M38888 35409
L40442 35409
" />
<path d="M38916 35393
L40414 35393
" />
<path d="M38946 35377
L40384 35377
" />
<path d="M38978 35361
L40352 35361
" />
<path d="M39011 35346
L40318 35346
" />
<path d="M39047 35330
L40283 35330
" />
<path d="M39085 35314
L40245 35314
" />
<path d="M39126 35298
L40204 35298
" />
<path d="M39171 35283
L40159 35283
" />
<path d="M39221 35267
L40109 35267
" />
<path d="M39278 35251
L40052 35251
" />
<path d="M39344 35235
L39985 35235
" />
<path d="M39429 35220
L39900 35220
" />
<path d="M39568 35204
L39762 35204
" />
<path d="M39665 38366
L39665 37893
" />
<path d="M39409 38129
L39921 38129
" />
<path d="M50795 23622
L50795 22834
" />
<path d="M49992 22834
L49992 23622
" />
<path d="M49992 27559
L49992 28346
" />
<path d="M50795 28346
L50795 27559
" />
<path d="M50795 35433
L50795 34645
" />
<path d="M49992 34645
L49992 35433
" />
<path d="M49992 39370
L49992 40157
" />
<path d="M50795 40157
L50795 39370
" />
<path d="M51771 31830
L52165 31830
" />
<path d="M52165 31161
L51771 31161
" />
<path d="M51771 32814
L52165 32814
" />
<path d="M52165 32145
L51771 32145
" />
<path d="M51771 37047
L52165 37047
" />
<path d="M52165 36377
L51771 36377
" />
<path d="M51771 38031
L52165 38031
" />
<path d="M52165 37362
L51771 37362
" />
<path d="M21948 29586
L23562 29586
" />
<path d="M23562 29586
L23562 24547
" />
<path d="M23562 24547
L21948 24547
" />
<path d="M21948 24547
L21948 29586
" />
<path d="M22637 29586
L22637 29389
" />
<path d="M22637 29389
L22145 29389
" />
<path d="M22145 29389
L22145 24744
" />
<path d="M22145 24744
L22637 24744
" />
<path d="M22637 24744
L22637 24547
" />
<path d="M22972 29586
L22972 29192
" />
<path d="M22972 29192
L23562 29192
" />
<path d="M22972 24547
L22972 24940
" />
<path d="M22972 24940
L23562 24940
" />
<path d="M22696 29704
L23681 29704
" />
<path d="M23681 29704
L23681 28720
" />
<path d="M21948 34507
L23562 34507
" />
<path d="M23562 34507
L23562 31437
" />
<path d="M23562 31437
L21948 31437
" />
<path d="M21948 31437
L21948 34507
" />
<path d="M22637 34507
L22637 34311
" />
<path d="M22637 34311
L22145 34311
" />
<path d="M22145 34311
L22145 31633
" />
<path d="M22145 31633
L22637 31633
" />
<path d="M22637 31633
L22637 31437
" />
<path d="M22972 34507
L22972 34114
" />
<path d="M22972 34114
L23562 34114
" />
<path d="M22972 31437
L22972 31830
" />
<path d="M22972 31830
L23562 31830
" />
<path d="M22696 34625
L23681 34625
" />
<path d="M23681 34625
L23681 33641
" />
<path d="M21948 38444
L23562 38444
" />
<path d="M23562 38444
L23562 35374
" />
<path d="M23562 35374
L21948 35374
" />
<path d="M21948 35374
L21948 38444
" />
<path d="M22637 38444
L22637 38248
" />
<path d="M22637 38248
L22145 38248
" />
<path d="M22145 38248
L22145 35570
" />
<path d="M22145 35570
L22637 35570
" />
<path d="M22637 35570
L22637 35374
" />
<path d="M22972 38444
L22972 38051
" />
<path d="M22972 38051
L23562 38051
" />
<path d="M22972 35374
L22972 35767
" />
<path d="M22972 35767
L23562 35767
" />
<path d="M22696 38562
L23681 38562
" />
<path d="M23681 38562
L23681 37578
" />
<path d="M28996 40059
L28996 38444
" />
<path d="M28996 38444
L25925 38444
" />
<path d="M25925 38444
L25925 40059
" />
<path d="M25925 40059
L28996 40059
" />
<path d="M28996 39370
L28799 39370
" />
<path d="M28799 39370
L28799 39862
" />
<path d="M28799 39862
L26122 39862
" />
<path d="M26122 39862
L26122 39370
" />
<path d="M26122 39370
L25925 39370
" />
<path d="M28996 39035
L28602 39035
" />
<path d="M28602 39035
L28602 38444
" />
<path d="M25925 39035
L26318 39035
" />
<path d="M26318 39035
L26318 38444
" />
<path d="M29114 39311
L29114 38326
" />
<path d="M29114 38326
L28129 38326
" />
<path d="M28996 42224
L28996 40610
" />
<path d="M28996 40610
L25925 40610
" />
<path d="M25925 40610
L25925 42224
" />
<path d="M25925 42224
L28996 42224
" />
<path d="M28996 41535
L28799 41535
" />
<path d="M28799 41535
L28799 42027
" />
<path d="M28799 42027
L26122 42027
" />
<path d="M26122 42027
L26122 41535
" />
<path d="M26122 41535
L25925 41535
" />
<path d="M28996 41200
L28602 41200
" />
<path d="M28602 41200
L28602 40610
" />
<path d="M25925 41200
L26318 41200
" />
<path d="M26318 41200
L26318 40610
" />
<path d="M29114 41476
L29114 40492
" />
<path d="M29114 40492
L28129 40492
" />
<path d="M54511 28492
L54511 24492
" />
<path d="M54011 28492
L57011 28492
" />
<path d="M57011 28492
L57011 24492
" />
<path d="M57011 24492
L54011 24492
" />
<path d="M54011 24492
L54011 28492
" />
<path d="M26822 32744
L26822 33791
" />
<path d="M27846 32744
L26822 32744
" />
<path d="M27846 33791
L26822 33791
" />
<path d="M27846 32744
L27846 33791
" />
<path d="M28346 32744
L28870 32744
" />
<path d="M28870 32744
L28870 33267
" />
<path d="M26822 34220
L26822 35267
" />
<path d="M27846 34220
L26822 34220
" />
<path d="M27846 35267
L26822 35267
" />
<path d="M27846 34220
L27846 35267
" />
<path d="M28346 34220
L28870 34220
" />
<path d="M28870 34220
L28870 34744
" />
</g>
<g style="fill:#000000; fill-opacity:0.0; 
stroke:#000000; stroke-width:59.0551; stroke-opacity:1; 
stroke-linecap:round; stroke-linejoin:round;">
<circle cx="44940.7" cy="23818.8" r="154.029" /> 
<path d="M47696 23936
L47736 23976
" />
<path d="M47736 23976
L47775 24133
" />
<path d="M47775 24133
L47736 24330
" />
<path d="M47736 24330
L47657 24448
" />
<path d="M47657 24448
L47539 24606
" />
<path d="M47539 24606
L47342 24645
" />
<path d="M47342 24645
L47145 24606
" />
<path d="M47145 24606
L46987 24487
" />
<path d="M46987 24487
L46948 24448
" />
<path d="M46948 24448
L46712 24606
" />
<path d="M46712 24606
L46397 24724
" />
<path d="M46397 24724
L46003 24802
" />
<path d="M46003 24802
L45531 24802
" />
<path d="M45531 24802
L45176 24724
" />
<path d="M45176 24724
L44940 24645
" />
<path d="M44940 24645
L44743 24566
" />
<path d="M44743 24566
L44586 24487
" />
<path d="M44586 24487
L44468 24566
" />
<path d="M44468 24566
L44232 24645
" />
<path d="M44232 24645
L44074 24606
" />
<path d="M44074 24606
L43956 24527
" />
<path d="M43956 24527
L43838 24448
" />
<path d="M43838 24448
L43759 24251
" />
<path d="M43759 24251
L43798 24054
" />
<path d="M43798 24054
L43877 23897
" />
<path d="M47696 21338
L47736 21220
" />
<path d="M47736 21220
L47775 21062
" />
<path d="M47775 21062
L47736 20944
" />
<path d="M47736 20944
L47657 20787
" />
<path d="M47657 20787
L47539 20708
" />
<path d="M47539 20708
L47421 20629
" />
<path d="M47421 20629
L47302 20629
" />
<path d="M47302 20629
L47184 20668
" />
<path d="M47184 20668
L47066 20708
" />
<path d="M47066 20708
L46948 20826
" />
<path d="M46948 20826
L46791 20708
" />
<path d="M46791 20708
L46633 20629
" />
<path d="M46633 20629
L46436 20550
" />
<path d="M46436 20550
L46121 20472
" />
<path d="M46121 20472
L45767 20432
" />
<path d="M45767 20432
L45452 20472
" />
<path d="M45452 20472
L45098 20550
" />
<path d="M45098 20550
L44743 20708
" />
<path d="M44743 20708
L44586 20787
" />
<path d="M44586 20787
L44468 20708
" />
<path d="M44468 20708
L44310 20629
" />
<path d="M44310 20629
L44113 20668
" />
<path d="M44113 20668
L43956 20747
" />
<path d="M43956 20747
L43838 20865
" />
<path d="M43838 20865
L43759 21062
" />
<path d="M43759 21062
L43798 21259
" />
<path d="M43798 21259
L43877 21377
" />
<path d="M43326 23936
L43326 25078
" />
<path d="M43326 25078
L48208 25078
" />
<path d="M48208 25078
L48208 23936
" />
<path d="M48208 20196
L43326 20196
" />
<path d="M43326 20196
L43326 21338
" />
<path d="M48208 20196
L48208 21338
" />
<circle cx="44940.7" cy="29724.3" r="154.029" /> 
<path d="M47696 29842
L47736 29882
" />
<path d="M47736 29882
L47775 30039
" />
<path d="M47775 30039
L47736 30236
" />
<path d="M47736 30236
L47657 30354
" />
<path d="M47657 30354
L47539 30512
" />
<path d="M47539 30512
L47342 30551
" />
<path d="M47342 30551
L47145 30512
" />
<path d="M47145 30512
L46987 30393
" />
<path d="M46987 30393
L46948 30354
" />
<path d="M46948 30354
L46712 30512
" />
<path d="M46712 30512
L46397 30630
" />
<path d="M46397 30630
L46003 30708
" />
<path d="M46003 30708
L45531 30708
" />
<path d="M45531 30708
L45176 30630
" />
<path d="M45176 30630
L44940 30551
" />
<path d="M44940 30551
L44743 30472
" />
<path d="M44743 30472
L44586 30393
" />
<path d="M44586 30393
L44468 30472
" />
<path d="M44468 30472
L44232 30551
" />
<path d="M44232 30551
L44074 30512
" />
<path d="M44074 30512
L43956 30433
" />
<path d="M43956 30433
L43838 30354
" />
<path d="M43838 30354
L43759 30157
" />
<path d="M43759 30157
L43798 29960
" />
<path d="M43798 29960
L43877 29803
" />
<path d="M47696 27244
L47736 27126
" />
<path d="M47736 27126
L47775 26968
" />
<path d="M47775 26968
L47736 26850
" />
<path d="M47736 26850
L47657 26693
" />
<path d="M47657 26693
L47539 26614
" />
<path d="M47539 26614
L47421 26535
" />
<path d="M47421 26535
L47302 26535
" />
<path d="M47302 26535
L47184 26574
" />
<path d="M47184 26574
L47066 26614
" />
<path d="M47066 26614
L46948 26732
" />
<path d="M46948 26732
L46791 26614
" />
<path d="M46791 26614
L46633 26535
" />
<path d="M46633 26535
L46436 26456
" />
<path d="M46436 26456
L46121 26378
" />
<path d="M46121 26378
L45767 26338
" />
<path d="M45767 26338
L45452 26378
" />
<path d="M45452 26378
L45098 26456
" />
<path d="M45098 26456
L44743 26614
" />
<path d="M44743 26614
L44586 26693
" />
<path d="M44586 26693
L44468 26614
" />
<path d="M44468 26614
L44310 26535
" />
<path d="M44310 26535
L44113 26574
" />
<path d="M44113 26574
L43956 26653
" />
<path d="M43956 26653
L43838 26771
" />
<path d="M43838 26771
L43759 26968
" />
<path d="M43759 26968
L43798 27165
" />
<path d="M43798 27165
L43877 27283
" />
<path d="M43326 29842
L43326 30984
" />
<path d="M43326 30984
L48208 30984
" />
<path d="M48208 30984
L48208 29842
" />
<path d="M48208 26102
L43326 26102
" />
<path d="M43326 26102
L43326 27244
" />
<path d="M48208 26102
L48208 27244
" />
<circle cx="44940.7" cy="35629.8" r="154.029" /> 
<path d="M47696 35747
L47736 35787
" />
<path d="M47736 35787
L47775 35944
" />
<path d="M47775 35944
L47736 36141
" />
<path d="M47736 36141
L47657 36259
" />
<path d="M47657 36259
L47539 36417
" />
<path d="M47539 36417
L47342 36456
" />
<path d="M47342 36456
L47145 36417
" />
<path d="M47145 36417
L46987 36298
" />
<path d="M46987 36298
L46948 36259
" />
<path d="M46948 36259
L46712 36417
" />
<path d="M46712 36417
L46397 36535
" />
<path d="M46397 36535
L46003 36613
" />
<path d="M46003 36613
L45531 36613
" />
<path d="M45531 36613
L45176 36535
" />
<path d="M45176 36535
L44940 36456
" />
<path d="M44940 36456
L44743 36377
" />
<path d="M44743 36377
L44586 36298
" />
<path d="M44586 36298
L44468 36377
" />
<path d="M44468 36377
L44232 36456
" />
<path d="M44232 36456
L44074 36417
" />
<path d="M44074 36417
L43956 36338
" />
<path d="M43956 36338
L43838 36259
" />
<path d="M43838 36259
L43759 36062
" />
<path d="M43759 36062
L43798 35865
" />
<path d="M43798 35865
L43877 35708
" />
<path d="M47696 33149
L47736 33031
" />
<path d="M47736 33031
L47775 32873
" />
<path d="M47775 32873
L47736 32755
" />
<path d="M47736 32755
L47657 32598
" />
<path d="M47657 32598
L47539 32519
" />
<path d="M47539 32519
L47421 32440
" />
<path d="M47421 32440
L47302 32440
" />
<path d="M47302 32440
L47184 32479
" />
<path d="M47184 32479
L47066 32519
" />
<path d="M47066 32519
L46948 32637
" />
<path d="M46948 32637
L46791 32519
" />
<path d="M46791 32519
L46633 32440
" />
<path d="M46633 32440
L46436 32361
" />
<path d="M46436 32361
L46121 32283
" />
<path d="M46121 32283
L45767 32243
" />
<path d="M45767 32243
L45452 32283
" />
<path d="M45452 32283
L45098 32361
" />
<path d="M45098 32361
L44743 32519
" />
<path d="M44743 32519
L44586 32598
" />
<path d="M44586 32598
L44468 32519
" />
<path d="M44468 32519
L44310 32440
" />
<path d="M44310 32440
L44113 32479
" />
<path d="M44113 32479
L43956 32558
" />
<path d="M43956 32558
L43838 32676
" />
<path d="M43838 32676
L43759 32873
" />
<path d="M43759 32873
L43798 33070
" />
<path d="M43798 33070
L43877 33188
" />
<path d="M43326 35747
L43326 36889
" />
<path d="M43326 36889
L48208 36889
" />
<path d="M48208 36889
L48208 35747
" />
<path d="M48208 32007
L43326 32007
" />
<path d="M43326 32007
L43326 33149
" />
<path d="M48208 32007
L48208 33149
" />
</g>
<g style="fill:#000000; fill-opacity:0.0; 
stroke:#000000; stroke-width:47.2441; stroke-opacity:1; 
stroke-linecap:round; stroke-linejoin:round;">
<circle cx="45767.7" cy="22637.8" r="2235.43" /> 
<circle cx="45767.7" cy="22637.8" r="1109.57" /> 
<circle cx="45767.7" cy="28543.3" r="2235.43" /> 
<circle cx="45767.7" cy="28543.3" r="1109.57" /> 
<circle cx="45767.7" cy="34448.8" r="2235.43" /> 
<circle cx="45767.7" cy="34448.8" r="1109.57" /> 
<circle cx="45767.7" cy="40354.3" r="2235.43" /> 
<circle cx="45767.7" cy="40354.3" r="1109.57" /> 
<path d="M26405 31791
L26405 31397
" />
<path d="M26940 31397
L26940 31791
" />
<path d="M29850 40645
L29850 40251
" />
<path d="M30385 40251
L30385 40645
" />
<path d="M27114 31830
L27114 31358
" />
<path d="M27807 31358
L27807 31830
" />
<path d="M24606 23354
L25000 23354
" />
<path d="M25000 23889
L24606 23889
" />
<path d="M30637 40649
L30637 40255
" />
<path d="M31173 40255
L31173 40649
" />
<path d="M24677 39173
L24677 39566
" />
<path d="M24141 39566
L24141 39173
" />
<path d="M24606 25322
L25000 25322
" />
<path d="M25000 25858
L24606 25858
" />
<path d="M31425 40649
L31425 40255
" />
<path d="M31960 40255
L31960 40649
" />
<path d="M24606 26307
L25000 26307
" />
<path d="M25000 26842
L24606 26842
" />
<path d="M24606 27291
L25000 27291
" />
<path d="M25000 27826
L24606 27826
" />
<path d="M37251 29074
L37251 28602
" />
<path d="M37944 28602
L37944 29074
" />
<path d="M37944 30177
L37944 30649
" />
<path d="M37251 30649
L37251 30177
" />
<path d="M37251 32814
L37251 32342
" />
<path d="M37944 32342
L37944 32814
" />
<path d="M37944 33917
L37944 34389
" />
<path d="M37251 34389
L37251 33917
" />
<path d="M51771 30539
L52165 30539
" />
<path d="M52165 31074
L51771 31074
" />
<path d="M51771 32901
L52165 32901
" />
<path d="M52165 33437
L51771 33437
" />
<path d="M51771 35755
L52165 35755
" />
<path d="M52165 36291
L51771 36291
" />
<path d="M51771 38118
L52165 38118
" />
<path d="M52165 38653
L51771 38653
" />
<path d="M28543 30720
L27645 30720
" />
<path d="M28543 30519
L28543 30720
" />
<path d="M28543 29318
L28543 29519
" />
<path d="M27645 29318
L28543 29318
" />
</g>
<g style="fill:#000000; fill-opacity:0.0; 
stroke:#000000; stroke-width:59.0551; stroke-opacity:1; 
stroke-linecap:round; stroke-linejoin:round;">
<path d="M28255 28149
L27271 28149
" />
<path d="M28255 27362
L27271 27362
" />
<path d="M28255.9 28149.6 A393.701 393.701 0.0 0 0 28255.9 27362.2 " />
<path d="M27271.7 27362.2 A393.701 393.701 0.0 0 0 27271.7 28149.6 " />
<path d="M25000 40952
L25000 41937
" />
<path d="M24212 40952
L24212 41937
" />
<path d="M25000 40952.8 A393.701 393.701 0.0 0 0 24212.6 40952.8 " />
<path d="M24212.6 41937 A393.701 393.701 0.0 0 0 25000 41937 " />
<path d="M31791 29370
L32214 29370
" />
<path d="M32214 29370
L32214 29281
" />
<path d="M32214 29281
L34714 29281
" />
<path d="M34714 29281
L34714 29409
" />
<path d="M32214 33582
L32214 33710
" />
<path d="M32214 33710
L34714 33710
" />
<path d="M34714 33710
L34714 33582
" />
</g>
<g style="fill:#000000; fill-opacity:0.0; 
stroke:#000000; stroke-width:47.2441; stroke-opacity:1; 
stroke-linecap:round; stroke-linejoin:round;">
<path d="M29850 42125
L29850 41732
" />
<path d="M30385 41732
L30385 42125
" />
<path d="M25000 24874
L24606 24874
" />
<path d="M24606 24338
L25000 24338
" />
<path d="M30637 42125
L30637 41732
" />
<path d="M31173 41732
L31173 42125
" />
<path d="M31425 42125
L31425 41732
" />
<path d="M31960 41732
L31960 42125
" />
</g>
<g style="fill:#000000; fill-opacity:0.0; 
stroke:#000000; stroke-width:59.0551; stroke-opacity:1; 
stroke-linecap:round; stroke-linejoin:round;">
<path d="M53444 21661
L53444 22645
" />
<path d="M52657 21661
L52657 22645
" />
<path d="M53444.9 21661.4 A393.701 393.701 0.0 0 0 52657.5 21661.4 " />
<path d="M52657.5 22645.7 A393.701 393.701 0.0 0 0 53444.9 22645.7 " />
<path d="M54625 21661
L54625 22645
" />
<path d="M53838 21661
L53838 22645
" />
<path d="M54626 21661.4 A393.701 393.701 0.0 0 0 53838.6 21661.4 " />
<path d="M53838.6 22645.7 A393.701 393.701 0.0 0 0 54626 22645.7 " />
</g>
<g style="fill:#000000; fill-opacity:0.0; 
stroke:#000000; stroke-width:47.2441; stroke-opacity:1; 
stroke-linecap:round; stroke-linejoin:round;">
<path d="M24803 33787
L25196 33787
" />
<path d="M25196 34322
L24803 34322
" />
<path d="M24803 36051
L25196 36051
" />
<path d="M25196 36586
L24803 36586
" />
<path d="M29921 29696
L29527 29696
" />
<path d="M29527 29161
L29921 29161
" />
<path d="M54511 34496
L54511 30496
" />
<path d="M54011 34496
L57011 34496
" />
<path d="M57011 34496
L57011 30496
" />
<path d="M57011 30496
L54011 30496
" />
<path d="M54011 30496
L54011 34496
" />
<path d="M53685 31763
L53685 33228
" />
<path d="M53007 31763
L53007 33228
" />
<path d="M53685 36685
L53685 38149
" />
<path d="M53007 36685
L53007 38149
" />
</g>
<g style="fill:#000000; fill-opacity:0.0; 
stroke:#000000; stroke-width:59.0551; stroke-opacity:1; 
stroke-linecap:round; stroke-linejoin:round;">
<path d="M48800 42585
L48800 42772
L48406 42772
" />
<path d="M48537 42285
L48800 42285
" />
<path d="M48387 42379
L48668 42472
L48668 42229
" />
<path d="M55380 34922
L55380 35203
L55361 35259
L55324 35297
L55268 35315
L55230 35315
" />
<path d="M55624 35090
L55586 35072
L55568 35053
L55549 35015
L55549 34997
L55568 34959
L55586 34940
L55624 34922
L55699 34922
L55736 34940
L55755 34959
L55774 34997
L55774 35015
L55755 35053
L55736 35072
L55699 35090
L55624 35090
L55586 35109
L55568 35128
L55549 35165
L55549 35240
L55568 35278
L55586 35297
L55624 35315
L55699 35315
L55736 35297
L55755 35278
L55774 35240
L55774 35165
L55755 35128
L55736 35109
L55699 35090
" />
<path d="M26260 31660
L26073 31791
" />
<path d="M26260 31885
L25867 31885
L25867 31735
L25885 31697
L25904 31678
L25942 31660
L25998 31660
L26035 31678
L26054 31697
L26073 31735
L26073 31885
" />
<path d="M25867 31528
L25867 31266
L26260 31435
" />
<path d="M26017 32620
L25998 32639
L25942 32658
L25904 32658
L25848 32639
L25810 32602
L25792 32564
L25773 32489
L25773 32433
L25792 32358
L25810 32320
L25848 32283
L25904 32264
L25942 32264
L25998 32283
L26017 32302
" />
<path d="M26392 32658
L26167 32658
" />
<path d="M26279 32658
L26279 32264
L26242 32320
L26204 32358
L26167 32377
" />
<path d="M26017 33408
L25998 33427
L25942 33445
L25904 33445
L25848 33427
L25810 33389
L25792 33352
L25773 33277
L25773 33220
L25792 33145
L25810 33108
L25848 33070
L25904 33052
L25942 33052
L25998 33070
L26017 33089
" />
<path d="M26167 33089
L26185 33070
L26223 33052
L26317 33052
L26354 33070
L26373 33089
L26392 33127
L26392 33164
L26373 33220
L26148 33445
L26392 33445
" />
<path d="M26017 34983
L25998 35001
L25942 35020
L25904 35020
L25848 35001
L25810 34964
L25792 34926
L25773 34851
L25773 34795
L25792 34720
L25810 34683
L25848 34645
L25904 34626
L25942 34626
L25998 34645
L26017 34664
" />
<path d="M26148 34626
L26392 34626
L26260 34776
L26317 34776
L26354 34795
L26373 34814
L26392 34851
L26392 34945
L26373 34983
L26354 35001
L26317 35020
L26204 35020
L26167 35001
L26148 34983
" />
<path d="M26017 35770
L25998 35789
L25942 35808
L25904 35808
L25848 35789
L25810 35751
L25792 35714
L25773 35639
L25773 35583
L25792 35508
L25810 35470
L25848 35433
L25904 35414
L25942 35414
L25998 35433
L26017 35451
" />
<path d="M26354 35545
L26354 35808
" />
<path d="M26260 35395
L26167 35676
L26410 35676
" />
<path d="M25337 38451
L25356 38470
L25374 38526
L25374 38563
L25356 38620
L25318 38657
L25281 38676
L25206 38695
L25149 38695
L25074 38676
L25037 38657
L25000 38620
L24981 38563
L24981 38526
L25000 38470
L25018 38451
" />
<path d="M24981 38095
L24981 38282
L25168 38301
L25149 38282
L25131 38245
L25131 38151
L25149 38113
L25168 38095
L25206 38076
L25299 38076
L25337 38095
L25356 38113
L25374 38151
L25374 38245
L25356 38282
L25337 38301
" />
<path d="M29569 32152
L29588 32170
L29607 32227
L29607 32264
L29588 32320
L29550 32358
L29513 32377
L29438 32395
L29382 32395
L29307 32377
L29269 32358
L29232 32320
L29213 32264
L29213 32227
L29232 32170
L29251 32152
" />
<path d="M29213 31814
L29213 31889
L29232 31927
L29251 31946
L29307 31983
L29382 32002
L29532 32002
L29569 31983
L29588 31964
L29607 31927
L29607 31852
L29588 31814
L29569 31796
L29532 31777
L29438 31777
L29401 31796
L29382 31814
L29363 31852
L29363 31927
L29382 31964
L29401 31983
L29438 32002
" />
<path d="M30160 32152
L30179 32170
L30197 32227
L30197 32264
L30179 32320
L30141 32358
L30104 32377
L30029 32395
L29972 32395
L29897 32377
L29860 32358
L29822 32320
L29804 32264
L29804 32227
L29822 32170
L29841 32152
" />
<path d="M29804 32020
L29804 31758
L30197 31927
" />
<path d="M36361 27526
L36379 27544
L36398 27601
L36398 27638
L36379 27694
L36342 27732
L36304 27751
L36229 27769
L36173 27769
L36098 27751
L36061 27732
L36023 27694
L36004 27638
L36004 27601
L36023 27544
L36042 27526
" />
<path d="M36173 27301
L36154 27338
L36136 27357
L36098 27376
L36079 27376
L36042 27357
L36023 27338
L36004 27301
L36004 27226
L36023 27188
L36042 27170
L36079 27151
L36098 27151
L36136 27170
L36154 27188
L36173 27226
L36173 27301
L36192 27338
L36211 27357
L36248 27376
L36323 27376
L36361 27357
L36379 27338
L36398 27301
L36398 27226
L36379 27188
L36361 27170
L36323 27151
L36248 27151
L36211 27170
L36192 27188
L36173 27226
" />
<path d="M36361 29888
L36379 29907
L36398 29963
L36398 30000
L36379 30057
L36342 30094
L36304 30113
L36229 30132
L36173 30132
L36098 30113
L36061 30094
L36023 30057
L36004 30000
L36004 29963
L36023 29907
L36042 29888
" />
<path d="M36398 29700
L36398 29625
L36379 29588
L36361 29569
L36304 29532
L36229 29513
L36079 29513
L36042 29532
L36023 29550
L36004 29588
L36004 29663
L36023 29700
L36042 29719
L36079 29738
L36173 29738
L36211 29719
L36229 29700
L36248 29663
L36248 29588
L36229 29550
L36211 29532
L36173 29513
" />
<path d="M36361 33619
L36379 33637
L36398 33694
L36398 33731
L36379 33787
L36342 33825
L36304 33844
L36229 33862
L36173 33862
L36098 33844
L36061 33825
L36023 33787
L36004 33731
L36004 33694
L36023 33637
L36042 33619
" />
<path d="M36398 33244
L36398 33469
" />
<path d="M36398 33356
L36004 33356
L36061 33394
L36098 33431
L36117 33469
" />
<path d="M36004 33000
L36004 32963
L36023 32925
L36042 32906
L36079 32888
L36154 32869
L36248 32869
L36323 32888
L36361 32906
L36379 32925
L36398 32963
L36398 33000
L36379 33038
L36361 33056
L36323 33075
L36248 33094
L36154 33094
L36079 33075
L36042 33056
L36023 33038
L36004 33000
" />
<path d="M36361 35981
L36379 36000
L36398 36056
L36398 36093
L36379 36150
L36342 36187
L36304 36206
L36229 36225
L36173 36225
L36098 36206
L36061 36187
L36023 36150
L36004 36093
L36004 36056
L36023 36000
L36042 35981
" />
<path d="M36398 35606
L36398 35831
" />
<path d="M36398 35718
L36004 35718
L36061 35756
L36098 35793
L36117 35831
" />
<path d="M36398 35231
L36398 35456
" />
<path d="M36398 35344
L36004 35344
L36061 35381
L36098 35419
L36117 35456
" />
<path d="M33211 28880
L33192 28899
L33136 28918
L33098 28918
L33042 28899
L33005 28862
L32986 28824
L32967 28749
L32967 28693
L32986 28618
L33005 28580
L33042 28543
L33098 28524
L33136 28524
L33192 28543
L33211 28562
" />
<path d="M33586 28918
L33361 28918
" />
<path d="M33473 28918
L33473 28524
L33436 28580
L33398 28618
L33361 28637
" />
<path d="M33736 28562
L33755 28543
L33792 28524
L33886 28524
L33923 28543
L33942 28562
L33961 28599
L33961 28637
L33942 28693
L33717 28918
L33961 28918
" />
<path d="M33113 34392
L33094 34411
L33038 34430
L33000 34430
L32944 34411
L32906 34373
L32888 34336
L32869 34261
L32869 34205
L32888 34130
L32906 34092
L32944 34055
L33000 34036
L33038 34036
L33094 34055
L33113 34073
" />
<path d="M33488 34430
L33263 34430
" />
<path d="M33375 34430
L33375 34036
L33338 34092
L33300 34130
L33263 34148
" />
<path d="M33619 34036
L33862 34036
L33731 34186
L33787 34186
L33825 34205
L33844 34223
L33862 34261
L33862 34355
L33844 34392
L33825 34411
L33787 34430
L33675 34430
L33637 34411
L33619 34392
" />
<path d="M36951 27516
L36970 27535
L36989 27591
L36989 27629
L36970 27685
L36932 27723
L36895 27741
L36820 27760
L36764 27760
L36689 27741
L36651 27723
L36614 27685
L36595 27629
L36595 27591
L36614 27535
L36632 27516
" />
<path d="M36989 27141
L36989 27366
" />
<path d="M36989 27254
L36595 27254
L36651 27291
L36689 27329
L36707 27366
" />
<path d="M36726 26804
L36989 26804
" />
<path d="M36576 26898
L36857 26991
L36857 26748
" />
<path d="M36951 29879
L36970 29897
L36989 29954
L36989 29991
L36970 30047
L36932 30085
L36895 30104
L36820 30122
L36764 30122
L36689 30104
L36651 30085
L36614 30047
L36595 29991
L36595 29954
L36614 29897
L36632 29879
" />
<path d="M36989 29504
L36989 29729
" />
<path d="M36989 29616
L36595 29616
L36651 29654
L36689 29691
L36707 29729
" />
<path d="M36595 29147
L36595 29335
L36782 29354
L36764 29335
L36745 29297
L36745 29204
L36764 29166
L36782 29147
L36820 29129
L36914 29129
L36951 29147
L36970 29166
L36989 29204
L36989 29297
L36970 29335
L36951 29354
" />
<path d="M36951 33619
L36970 33637
L36989 33694
L36989 33731
L36970 33787
L36932 33825
L36895 33844
L36820 33862
L36764 33862
L36689 33844
L36651 33825
L36614 33787
L36595 33731
L36595 33694
L36614 33637
L36632 33619
" />
<path d="M36989 33244
L36989 33469
" />
<path d="M36989 33356
L36595 33356
L36651 33394
L36689 33431
L36707 33469
" />
<path d="M36595 32906
L36595 32981
L36614 33019
L36632 33038
L36689 33075
L36764 33094
L36914 33094
L36951 33075
L36970 33056
L36989 33019
L36989 32944
L36970 32906
L36951 32888
L36914 32869
L36820 32869
L36782 32888
L36764 32906
L36745 32944
L36745 33019
L36764 33056
L36782 33075
L36820 33094
" />
<path d="M36951 35981
L36970 36000
L36989 36056
L36989 36093
L36970 36150
L36932 36187
L36895 36206
L36820 36225
L36764 36225
L36689 36206
L36651 36187
L36614 36150
L36595 36093
L36595 36056
L36614 36000
L36632 35981
" />
<path d="M36989 35606
L36989 35831
" />
<path d="M36989 35718
L36595 35718
L36651 35756
L36689 35793
L36707 35831
" />
<path d="M36595 35475
L36595 35212
L36989 35381
" />
<path d="M33211 28290
L33192 28308
L33136 28327
L33098 28327
L33042 28308
L33005 28271
L32986 28233
L32967 28158
L32967 28102
L32986 28027
L33005 27990
L33042 27952
L33098 27934
L33136 27934
L33192 27952
L33211 27971
" />
<path d="M33586 28327
L33361 28327
" />
<path d="M33473 28327
L33473 27934
L33436 27990
L33398 28027
L33361 28046
" />
<path d="M33811 28102
L33773 28083
L33755 28065
L33736 28027
L33736 28008
L33755 27971
L33773 27952
L33811 27934
L33886 27934
L33923 27952
L33942 27971
L33961 28008
L33961 28027
L33942 28065
L33923 28083
L33886 28102
L33811 28102
L33773 28121
L33755 28140
L33736 28177
L33736 28252
L33755 28290
L33773 28308
L33811 28327
L33886 28327
L33923 28308
L33942 28290
L33961 28252
L33961 28177
L33942 28140
L33923 28121
L33886 28102
" />
<path d="M33113 34983
L33094 35001
L33038 35020
L33000 35020
L32944 35001
L32906 34964
L32888 34926
L32869 34851
L32869 34795
L32888 34720
L32906 34683
L32944 34645
L33000 34626
L33038 34626
L33094 34645
L33113 34664
" />
<path d="M33488 35020
L33263 35020
" />
<path d="M33375 35020
L33375 34626
L33338 34683
L33300 34720
L33263 34739
" />
<path d="M33675 35020
L33750 35020
L33787 35001
L33806 34983
L33844 34926
L33862 34851
L33862 34701
L33844 34664
L33825 34645
L33787 34626
L33712 34626
L33675 34645
L33656 34664
L33637 34701
L33637 34795
L33656 34833
L33675 34851
L33712 34870
L33787 34870
L33825 34851
L33844 34833
L33862 34795
" />
<path d="M39412 24156
L39393 24175
L39337 24193
L39299 24193
L39243 24175
L39206 24137
L39187 24100
L39168 24025
L39168 23968
L39187 23893
L39206 23856
L39243 23818
L39299 23800
L39337 23800
L39393 23818
L39412 23837
" />
<path d="M39562 23837
L39580 23818
L39618 23800
L39712 23800
L39749 23818
L39768 23837
L39787 23875
L39787 23912
L39768 23968
L39543 24193
L39787 24193
" />
<path d="M40030 23800
L40068 23800
L40105 23818
L40124 23837
L40143 23875
L40162 23950
L40162 24043
L40143 24118
L40124 24156
L40105 24175
L40068 24193
L40030 24193
L39993 24175
L39974 24156
L39955 24118
L39937 24043
L39937 23950
L39955 23875
L39974 23837
L39993 23818
L40030 23800
" />
<path d="M39412 39215
L39393 39234
L39337 39252
L39299 39252
L39243 39234
L39206 39196
L39187 39159
L39168 39084
L39168 39027
L39187 38952
L39206 38915
L39243 38877
L39299 38859
L39337 38859
L39393 38877
L39412 38896
" />
<path d="M39562 38896
L39580 38877
L39618 38859
L39712 38859
L39749 38877
L39768 38896
L39787 38934
L39787 38971
L39768 39027
L39543 39252
L39787 39252
" />
<path d="M40162 39252
L39937 39252
" />
<path d="M40049 39252
L40049 38859
L40012 38915
L39974 38952
L39937 38971
" />
<path d="M51321 23481
L51340 23500
L51359 23556
L51359 23593
L51340 23650
L51302 23687
L51265 23706
L51190 23725
L51134 23725
L51059 23706
L51021 23687
L50984 23650
L50965 23593
L50965 23556
L50984 23500
L51002 23481
" />
<path d="M51002 23331
L50984 23312
L50965 23275
L50965 23181
L50984 23143
L51002 23125
L51040 23106
L51077 23106
L51134 23125
L51359 23350
L51359 23106
" />
<path d="M51002 22956
L50984 22937
L50965 22900
L50965 22806
L50984 22769
L51002 22750
L51040 22731
L51077 22731
L51134 22750
L51359 22975
L51359 22731
" />
<path d="M51321 28205
L51340 28224
L51359 28280
L51359 28318
L51340 28374
L51302 28412
L51265 28430
L51190 28449
L51134 28449
L51059 28430
L51021 28412
L50984 28374
L50965 28318
L50965 28280
L50984 28224
L51002 28205
" />
<path d="M51002 28055
L50984 28037
L50965 27999
L50965 27905
L50984 27868
L51002 27849
L51040 27830
L51077 27830
L51134 27849
L51359 28074
L51359 27830
" />
<path d="M50965 27699
L50965 27455
L51115 27587
L51115 27530
L51134 27493
L51152 27474
L51190 27455
L51284 27455
L51321 27474
L51340 27493
L51359 27530
L51359 27643
L51340 27680
L51321 27699
" />
<path d="M51321 35292
L51340 35311
L51359 35367
L51359 35404
L51340 35461
L51302 35498
L51265 35517
L51190 35536
L51134 35536
L51059 35517
L51021 35498
L50984 35461
L50965 35404
L50965 35367
L50984 35311
L51002 35292
" />
<path d="M51002 35142
L50984 35123
L50965 35086
L50965 34992
L50984 34955
L51002 34936
L51040 34917
L51077 34917
L51134 34936
L51359 35161
L51359 34917
" />
<path d="M51096 34580
L51359 34580
" />
<path d="M50946 34673
L51227 34767
L51227 34523
" />
<path d="M51321 40016
L51340 40035
L51359 40091
L51359 40129
L51340 40185
L51302 40223
L51265 40241
L51190 40260
L51134 40260
L51059 40241
L51021 40223
L50984 40185
L50965 40129
L50965 40091
L50984 40035
L51002 40016
" />
<path d="M51002 39866
L50984 39848
L50965 39810
L50965 39716
L50984 39679
L51002 39660
L51040 39641
L51077 39641
L51134 39660
L51359 39885
L51359 39641
" />
<path d="M50965 39285
L50965 39473
L51152 39491
L51134 39473
L51115 39435
L51115 39341
L51134 39304
L51152 39285
L51190 39266
L51284 39266
L51321 39285
L51340 39304
L51359 39341
L51359 39435
L51340 39473
L51321 39491
" />
<path d="M50337 31636
L50318 31655
L50262 31674
L50224 31674
L50168 31655
L50131 31617
L50112 31580
L50093 31505
L50093 31449
L50112 31374
L50131 31336
L50168 31299
L50224 31280
L50262 31280
L50318 31299
L50337 31317
" />
<path d="M50487 31317
L50506 31299
L50543 31280
L50637 31280
L50674 31299
L50693 31317
L50712 31355
L50712 31392
L50693 31449
L50468 31674
L50712 31674
" />
<path d="M51049 31280
L50974 31280
L50937 31299
L50918 31317
L50881 31374
L50862 31449
L50862 31599
L50881 31636
L50899 31655
L50937 31674
L51012 31674
L51049 31655
L51068 31636
L51087 31599
L51087 31505
L51068 31467
L51049 31449
L51012 31430
L50937 31430
L50899 31449
L50881 31467
L50862 31505
" />
<path d="M50337 32620
L50318 32639
L50262 32658
L50224 32658
L50168 32639
L50131 32602
L50112 32564
L50093 32489
L50093 32433
L50112 32358
L50131 32320
L50168 32283
L50224 32264
L50262 32264
L50318 32283
L50337 32302
" />
<path d="M50487 32302
L50506 32283
L50543 32264
L50637 32264
L50674 32283
L50693 32302
L50712 32339
L50712 32377
L50693 32433
L50468 32658
L50712 32658
" />
<path d="M50843 32264
L51106 32264
L50937 32658
" />
<path d="M50239 37050
L50220 37068
L50164 37087
L50126 37087
L50070 37068
L50032 37031
L50014 36993
L49995 36918
L49995 36862
L50014 36787
L50032 36750
L50070 36712
L50126 36693
L50164 36693
L50220 36712
L50239 36731
" />
<path d="M50389 36731
L50407 36712
L50445 36693
L50538 36693
L50576 36712
L50595 36731
L50613 36768
L50613 36806
L50595 36862
L50370 37087
L50613 37087
" />
<path d="M50838 36862
L50801 36843
L50782 36825
L50763 36787
L50763 36768
L50782 36731
L50801 36712
L50838 36693
L50913 36693
L50951 36712
L50970 36731
L50988 36768
L50988 36787
L50970 36825
L50951 36843
L50913 36862
L50838 36862
L50801 36881
L50782 36900
L50763 36937
L50763 37012
L50782 37050
L50801 37068
L50838 37087
L50913 37087
L50951 37068
L50970 37050
L50988 37012
L50988 36937
L50970 36900
L50951 36881
L50913 36862
" />
<path d="M50239 37837
L50220 37856
L50164 37874
L50126 37874
L50070 37856
L50032 37818
L50014 37781
L49995 37706
L49995 37649
L50014 37574
L50032 37537
L50070 37500
L50126 37481
L50164 37481
L50220 37500
L50239 37518
" />
<path d="M50389 37518
L50407 37500
L50445 37481
L50538 37481
L50576 37500
L50595 37518
L50613 37556
L50613 37593
L50595 37649
L50370 37874
L50613 37874
" />
<path d="M50801 37874
L50876 37874
L50913 37856
L50932 37837
L50970 37781
L50988 37706
L50988 37556
L50970 37518
L50951 37500
L50913 37481
L50838 37481
L50801 37500
L50782 37518
L50763 37556
L50763 37649
L50782 37687
L50801 37706
L50838 37724
L50913 37724
L50951 37706
L50970 37687
L50988 37649
" />
<path d="M22506 23800
L22506 24081
L22487 24137
L22450 24175
L22394 24193
L22356 24193
" />
<path d="M22900 24193
L22675 24193
" />
<path d="M22787 24193
L22787 23800
L22750 23856
L22712 23893
L22675 23912
" />
<path d="M22506 30689
L22506 30971
L22487 31027
L22450 31064
L22394 31083
L22356 31083
" />
<path d="M22675 30727
L22694 30708
L22731 30689
L22825 30689
L22862 30708
L22881 30727
L22900 30764
L22900 30802
L22881 30858
L22656 31083
L22900 31083
" />
<path d="M22506 38760
L22506 39041
L22487 39098
L22450 39135
L22394 39154
L22356 39154
" />
<path d="M22656 38760
L22900 38760
L22769 38910
L22825 38910
L22862 38929
L22881 38948
L22900 38985
L22900 39079
L22881 39116
L22862 39135
L22825 39154
L22712 39154
L22675 39135
L22656 39116
" />
<path d="M29311 39501
L29593 39501
L29649 39520
L29686 39557
L29705 39613
L29705 39651
" />
<path d="M29443 39145
L29705 39145
" />
<path d="M29293 39238
L29574 39332
L29574 39088
" />
<path d="M29311 41666
L29593 41666
L29649 41685
L29686 41722
L29705 41779
L29705 41816
" />
<path d="M29311 41291
L29311 41479
L29499 41497
L29480 41479
L29461 41441
L29461 41347
L29480 41310
L29499 41291
L29536 41272
L29630 41272
L29668 41291
L29686 41310
L29705 41347
L29705 41441
L29686 41479
L29668 41497
" />
<path d="M55380 23997
L55380 24278
L55361 24334
L55324 24371
L55268 24390
L55230 24390
" />
<path d="M55530 23997
L55793 23997
L55624 24390
" />
<path d="M29396 33052
L29396 33333
L29377 33389
L29340 33427
L29283 33445
L29246 33445
" />
<path d="M29583 33445
L29583 33052
L29733 33052
L29771 33070
L29790 33089
L29808 33127
L29808 33183
L29790 33220
L29771 33239
L29733 33258
L29583 33258
" />
<path d="M30183 33445
L29958 33445
" />
<path d="M30071 33445
L30071 33052
L30033 33108
L29996 33145
L29958 33164
" />
<path d="M29396 34528
L29396 34809
L29377 34865
L29340 34903
L29283 34922
L29246 34922
" />
<path d="M29583 34922
L29583 34528
L29733 34528
L29771 34547
L29790 34565
L29808 34603
L29808 34659
L29790 34697
L29771 34715
L29733 34734
L29583 34734
" />
<path d="M29958 34565
L29977 34547
L30014 34528
L30108 34528
L30146 34547
L30164 34565
L30183 34603
L30183 34640
L30164 34697
L29940 34922
L30183 34922
" />
<path d="M48800 24868
L48800 25056
L48406 25056
" />
<path d="M48800 24531
L48800 24756
" />
<path d="M48800 24643
L48406 24643
L48462 24681
L48500 24718
L48518 24756
" />
<path d="M48800 30774
L48800 30961
L48406 30961
" />
<path d="M48443 30661
L48425 30643
L48406 30605
L48406 30511
L48425 30474
L48443 30455
L48481 30436
L48518 30436
L48575 30455
L48800 30680
L48800 30436
" />
<path d="M48800 36679
L48800 36867
L48406 36867
" />
<path d="M48406 36586
L48406 36342
L48556 36473
L48556 36417
L48575 36379
L48593 36361
L48631 36342
L48725 36342
L48762 36361
L48781 36379
L48800 36417
L48800 36529
L48781 36567
L48762 36586
" />
<path d="M24981 31660
L24793 31791
" />
<path d="M24981 31885
L24587 31885
L24587 31735
L24606 31697
L24625 31678
L24662 31660
L24718 31660
L24756 31678
L24775 31697
L24793 31735
L24793 31885
" />
<path d="M24981 31285
L24981 31510
" />
<path d="M24981 31397
L24587 31397
L24643 31435
L24681 31472
L24700 31510
" />
<path d="M30296 39534
L30108 39665
" />
<path d="M30296 39759
L29902 39759
L29902 39609
L29921 39571
L29940 39552
L29977 39534
L30033 39534
L30071 39552
L30089 39571
L30108 39609
L30108 39759
" />
<path d="M29940 39384
L29921 39365
L29902 39327
L29902 39234
L29921 39196
L29940 39177
L29977 39159
L30014 39159
L30071 39177
L30296 39402
L30296 39159
" />
<path d="M25670 31660
L25482 31791
" />
<path d="M25670 31885
L25276 31885
L25276 31735
L25295 31697
L25314 31678
L25351 31660
L25407 31660
L25445 31678
L25464 31697
L25482 31735
L25482 31885
" />
<path d="M25276 31528
L25276 31285
L25426 31416
L25426 31360
L25445 31322
L25464 31303
L25501 31285
L25595 31285
L25632 31303
L25651 31322
L25670 31360
L25670 31472
L25651 31510
L25632 31528
" />
<path d="M25721 23800
L25590 23612
" />
<path d="M25496 23800
L25496 23406
L25646 23406
L25684 23425
L25703 23443
L25721 23481
L25721 23537
L25703 23575
L25684 23593
L25646 23612
L25496 23612
" />
<path d="M26059 23537
L26059 23800
" />
<path d="M25965 23387
L25871 23668
L26115 23668
" />
<path d="M31083 39534
L30896 39665
" />
<path d="M31083 39759
L30689 39759
L30689 39609
L30708 39571
L30727 39552
L30764 39534
L30821 39534
L30858 39552
L30877 39571
L30896 39609
L30896 39759
" />
<path d="M30689 39177
L30689 39365
L30877 39384
L30858 39365
L30839 39327
L30839 39234
L30858 39196
L30877 39177
L30914 39159
L31008 39159
L31046 39177
L31064 39196
L31083 39234
L31083 39327
L31064 39365
L31046 39384
" />
<path d="M24587 38451
L24400 38582
" />
<path d="M24587 38676
L24193 38676
L24193 38526
L24212 38488
L24231 38470
L24268 38451
L24325 38451
L24362 38470
L24381 38488
L24400 38526
L24400 38676
" />
<path d="M24193 38113
L24193 38188
L24212 38226
L24231 38245
L24287 38282
L24362 38301
L24512 38301
L24550 38282
L24568 38263
L24587 38226
L24587 38151
L24568 38113
L24550 38095
L24512 38076
L24418 38076
L24381 38095
L24362 38113
L24343 38151
L24343 38226
L24362 38263
L24381 38282
L24418 38301
" />
<path d="M25721 25768
L25590 25581
" />
<path d="M25496 25768
L25496 25374
L25646 25374
L25684 25393
L25703 25412
L25721 25449
L25721 25506
L25703 25543
L25684 25562
L25646 25581
L25496 25581
" />
<path d="M25946 25543
L25909 25524
L25890 25506
L25871 25468
L25871 25449
L25890 25412
L25909 25393
L25946 25374
L26021 25374
L26059 25393
L26077 25412
L26096 25449
L26096 25468
L26077 25506
L26059 25524
L26021 25543
L25946 25543
L25909 25562
L25890 25581
L25871 25618
L25871 25693
L25890 25731
L25909 25749
L25946 25768
L26021 25768
L26059 25749
L26077 25731
L26096 25693
L26096 25618
L26077 25581
L26059 25562
L26021 25543
" />
<path d="M31871 39534
L31683 39665
" />
<path d="M31871 39759
L31477 39759
L31477 39609
L31496 39571
L31514 39552
L31552 39534
L31608 39534
L31646 39552
L31664 39571
L31683 39609
L31683 39759
" />
<path d="M31871 39346
L31871 39271
L31852 39234
L31833 39215
L31777 39177
L31702 39159
L31552 39159
L31514 39177
L31496 39196
L31477 39234
L31477 39309
L31496 39346
L31514 39365
L31552 39384
L31646 39384
L31683 39365
L31702 39346
L31721 39309
L31721 39234
L31702 39196
L31683 39177
L31646 39159
" />
<path d="M25731 26752
L25599 26565
" />
<path d="M25506 26752
L25506 26359
L25656 26359
L25693 26377
L25712 26396
L25731 26434
L25731 26490
L25712 26527
L25693 26546
L25656 26565
L25506 26565
" />
<path d="M26106 26752
L25881 26752
" />
<path d="M25993 26752
L25993 26359
L25956 26415
L25918 26452
L25881 26471
" />
<path d="M26349 26359
L26387 26359
L26424 26377
L26443 26396
L26462 26434
L26481 26509
L26481 26602
L26462 26677
L26443 26715
L26424 26734
L26387 26752
L26349 26752
L26312 26734
L26293 26715
L26274 26677
L26256 26602
L26256 26509
L26274 26434
L26293 26396
L26312 26377
L26349 26359
" />
<path d="M25731 27737
L25599 27549
" />
<path d="M25506 27737
L25506 27343
L25656 27343
L25693 27362
L25712 27380
L25731 27418
L25731 27474
L25712 27512
L25693 27530
L25656 27549
L25506 27549
" />
<path d="M26106 27737
L25881 27737
" />
<path d="M25993 27737
L25993 27343
L25956 27399
L25918 27437
L25881 27455
" />
<path d="M26481 27737
L26256 27737
" />
<path d="M26368 27737
L26368 27343
L26331 27399
L26293 27437
L26256 27455
" />
<path d="M38563 29091
L38376 29222
" />
<path d="M38563 29316
L38170 29316
L38170 29166
L38188 29129
L38207 29110
L38245 29091
L38301 29091
L38338 29110
L38357 29129
L38376 29166
L38376 29316
" />
<path d="M38563 28716
L38563 28941
" />
<path d="M38563 28829
L38170 28829
L38226 28866
L38263 28904
L38282 28941
" />
<path d="M38207 28566
L38188 28547
L38170 28510
L38170 28416
L38188 28379
L38207 28360
L38245 28341
L38282 28341
L38338 28360
L38563 28585
L38563 28341
" />
<path d="M38563 30666
L38376 30797
" />
<path d="M38563 30891
L38170 30891
L38170 30741
L38188 30703
L38207 30685
L38245 30666
L38301 30666
L38338 30685
L38357 30703
L38376 30741
L38376 30891
" />
<path d="M38563 30291
L38563 30516
" />
<path d="M38563 30404
L38170 30404
L38226 30441
L38263 30479
L38282 30516
" />
<path d="M38170 30160
L38170 29916
L38320 30047
L38320 29991
L38338 29954
L38357 29935
L38395 29916
L38488 29916
L38526 29935
L38545 29954
L38563 29991
L38563 30104
L38545 30141
L38526 30160
" />
<path d="M38563 32831
L38376 32963
" />
<path d="M38563 33056
L38170 33056
L38170 32906
L38188 32869
L38207 32850
L38245 32831
L38301 32831
L38338 32850
L38357 32869
L38376 32906
L38376 33056
" />
<path d="M38563 32456
L38563 32681
" />
<path d="M38563 32569
L38170 32569
L38226 32606
L38263 32644
L38282 32681
" />
<path d="M38301 32119
L38563 32119
" />
<path d="M38151 32213
L38432 32306
L38432 32063
" />
<path d="M38563 34406
L38376 34537
" />
<path d="M38563 34631
L38170 34631
L38170 34481
L38188 34444
L38207 34425
L38245 34406
L38301 34406
L38338 34425
L38357 34444
L38376 34481
L38376 34631
" />
<path d="M38563 34031
L38563 34256
" />
<path d="M38563 34144
L38170 34144
L38226 34181
L38263 34219
L38282 34256
" />
<path d="M38170 33675
L38170 33862
L38357 33881
L38338 33862
L38320 33825
L38320 33731
L38338 33694
L38357 33675
L38395 33656
L38488 33656
L38526 33675
L38545 33694
L38563 33731
L38563 33825
L38545 33862
L38526 33881
" />
<path d="M50337 30985
L50206 30797
" />
<path d="M50112 30985
L50112 30591
L50262 30591
L50299 30610
L50318 30628
L50337 30666
L50337 30722
L50318 30760
L50299 30778
L50262 30797
L50112 30797
" />
<path d="M50712 30985
L50487 30985
" />
<path d="M50599 30985
L50599 30591
L50562 30647
L50524 30685
L50487 30703
" />
<path d="M51049 30591
L50974 30591
L50937 30610
L50918 30628
L50881 30685
L50862 30760
L50862 30910
L50881 30947
L50899 30966
L50937 30985
L51012 30985
L51049 30966
L51068 30947
L51087 30910
L51087 30816
L51068 30778
L51049 30760
L51012 30741
L50937 30741
L50899 30760
L50881 30778
L50862 30816
" />
<path d="M50337 33347
L50206 33159
" />
<path d="M50112 33347
L50112 32953
L50262 32953
L50299 32972
L50318 32991
L50337 33028
L50337 33084
L50318 33122
L50299 33141
L50262 33159
L50112 33159
" />
<path d="M50712 33347
L50487 33347
" />
<path d="M50599 33347
L50599 32953
L50562 33009
L50524 33047
L50487 33066
" />
<path d="M50843 32953
L51106 32953
L50937 33347
" />
<path d="M50239 36497
L50107 36309
" />
<path d="M50014 36497
L50014 36103
L50164 36103
L50201 36122
L50220 36140
L50239 36178
L50239 36234
L50220 36272
L50201 36290
L50164 36309
L50014 36309
" />
<path d="M50613 36497
L50389 36497
" />
<path d="M50501 36497
L50501 36103
L50464 36159
L50426 36197
L50389 36215
" />
<path d="M50838 36272
L50801 36253
L50782 36234
L50763 36197
L50763 36178
L50782 36140
L50801 36122
L50838 36103
L50913 36103
L50951 36122
L50970 36140
L50988 36178
L50988 36197
L50970 36234
L50951 36253
L50913 36272
L50838 36272
L50801 36290
L50782 36309
L50763 36347
L50763 36422
L50782 36459
L50801 36478
L50838 36497
L50913 36497
L50951 36478
L50970 36459
L50988 36422
L50988 36347
L50970 36309
L50951 36290
L50913 36272
" />
<path d="M50239 38563
L50107 38376
" />
<path d="M50014 38563
L50014 38170
L50164 38170
L50201 38188
L50220 38207
L50239 38245
L50239 38301
L50220 38338
L50201 38357
L50164 38376
L50014 38376
" />
<path d="M50613 38563
L50389 38563
" />
<path d="M50501 38563
L50501 38170
L50464 38226
L50426 38263
L50389 38282
" />
<path d="M50801 38563
L50876 38563
L50913 38545
L50932 38526
L50970 38470
L50988 38395
L50988 38245
L50970 38207
L50951 38188
L50913 38170
L50838 38170
L50801 38188
L50782 38207
L50763 38245
L50763 38338
L50782 38376
L50801 38395
L50838 38413
L50913 38413
L50951 38395
L50970 38376
L50988 38338
" />
<path d="M26752 30254
L26565 30385
" />
<path d="M26752 30479
L26359 30479
L26359 30329
L26377 30291
L26396 30272
L26434 30254
L26490 30254
L26527 30272
L26546 30291
L26565 30329
L26565 30479
" />
<path d="M26359 30141
L26752 30010
L26359 29879
" />
<path d="M26752 29541
L26752 29766
" />
<path d="M26752 29654
L26359 29654
L26415 29691
L26452 29729
L26471 29766
" />
<path d="M27266 26752
L27491 26752
" />
<path d="M27379 27146
L27379 26752
" />
<path d="M27623 27146
L27623 26752
L27773 26752
L27810 26771
L27829 26790
L27848 26827
L27848 26884
L27829 26921
L27810 26940
L27773 26959
L27623 26959
" />
<path d="M28223 27146
L27998 27146
" />
<path d="M28110 27146
L28110 26752
L28073 26809
L28035 26846
L27998 26865
" />
<path d="M23603 41941
L23603 41716
" />
<path d="M23997 41829
L23603 41829
" />
<path d="M23997 41585
L23603 41585
L23603 41435
L23622 41398
L23640 41379
L23678 41360
L23734 41360
L23772 41379
L23790 41398
L23809 41435
L23809 41585
" />
<path d="M23640 41210
L23622 41191
L23603 41154
L23603 41060
L23622 41023
L23640 41004
L23678 40985
L23715 40985
L23772 41004
L23997 41229
L23997 40985
" />
<path d="M31983 28701
L31983 29020
L32002 29057
L32020 29076
L32058 29095
L32133 29095
L32170 29076
L32189 29057
L32208 29020
L32208 28701
" />
<path d="M32602 29095
L32377 29095
" />
<path d="M32489 29095
L32489 28701
L32452 28757
L32414 28795
L32377 28814
" />
<path d="M32166 42257
L32447 42257
L32503 42275
L32541 42313
L32559 42369
L32559 42407
" />
<path d="M32559 42069
L32166 42069
L32166 41919
L32185 41882
L32203 41863
L32241 41844
L32297 41844
L32335 41863
L32353 41882
L32372 41919
L32372 42069
" />
<path d="M32166 41713
L32166 41469
L32316 41601
L32316 41544
L32335 41507
L32353 41488
L32391 41469
L32485 41469
L32522 41488
L32541 41507
L32559 41544
L32559 41657
L32541 41694
L32522 41713
" />
<path d="M25656 24390
L25656 24671
L25637 24728
L25599 24765
L25543 24784
L25506 24784
" />
<path d="M25843 24784
L25843 24390
L25993 24390
L26031 24409
L26049 24428
L26068 24465
L26068 24521
L26049 24559
L26031 24578
L25993 24596
L25843 24596
" />
<path d="M26406 24521
L26406 24784
" />
<path d="M26312 24371
L26218 24653
L26462 24653
" />
<path d="M32756 42257
L33038 42257
L33094 42275
L33131 42313
L33150 42369
L33150 42407
" />
<path d="M33150 42069
L32756 42069
L32756 41919
L32775 41882
L32794 41863
L32831 41844
L32888 41844
L32925 41863
L32944 41882
L32963 41919
L32963 42069
" />
<path d="M32756 41488
L32756 41676
L32944 41694
L32925 41676
L32906 41638
L32906 41544
L32925 41507
L32944 41488
L32981 41469
L33075 41469
L33113 41488
L33131 41507
L33150 41544
L33150 41638
L33131 41676
L33113 41694
" />
<path d="M33347 42257
L33628 42257
L33684 42275
L33722 42313
L33741 42369
L33741 42407
" />
<path d="M33741 42069
L33347 42069
L33347 41919
L33366 41882
L33384 41863
L33422 41844
L33478 41844
L33516 41863
L33534 41882
L33553 41919
L33553 42069
" />
<path d="M33347 41713
L33347 41451
L33741 41619
" />
<path d="M52048 22650
L52048 22425
" />
<path d="M52441 22537
L52048 22537
" />
<path d="M52441 22294
L52048 22294
L52048 22144
L52066 22106
L52085 22087
L52123 22069
L52179 22069
L52216 22087
L52235 22106
L52254 22144
L52254 22294
" />
<path d="M52048 21937
L52048 21694
L52198 21825
L52198 21769
L52216 21731
L52235 21712
L52273 21694
L52366 21694
L52404 21712
L52423 21731
L52441 21769
L52441 21881
L52423 21919
L52404 21937
" />
<path d="M54804 22650
L54804 22425
" />
<path d="M55197 22537
L54804 22537
" />
<path d="M55197 22294
L54804 22294
L54804 22144
L54822 22106
L54841 22087
L54879 22069
L54935 22069
L54972 22087
L54991 22106
L55010 22144
L55010 22294
" />
<path d="M54935 21731
L55197 21731
" />
<path d="M54785 21825
L55066 21919
L55066 21675
" />
<path d="M25862 33839
L25862 34120
L25843 34176
L25806 34214
L25749 34233
L25712 34233
" />
<path d="M26049 34233
L26049 33839
L26199 33839
L26237 33858
L26256 33877
L26274 33914
L26274 33970
L26256 34008
L26237 34026
L26199 34045
L26049 34045
" />
<path d="M26649 34233
L26424 34233
" />
<path d="M26537 34233
L26537 33839
L26499 33895
L26462 33933
L26424 33952
" />
<path d="M26893 33839
L26931 33839
L26968 33858
L26987 33877
L27005 33914
L27024 33989
L27024 34083
L27005 34158
L26987 34195
L26968 34214
L26931 34233
L26893 34233
L26856 34214
L26837 34195
L26818 34158
L26799 34083
L26799 33989
L26818 33914
L26837 33877
L26856 33858
L26893 33839
" />
<path d="M25862 36103
L25862 36384
L25843 36440
L25806 36478
L25749 36497
L25712 36497
" />
<path d="M26049 36497
L26049 36103
L26199 36103
L26237 36122
L26256 36140
L26274 36178
L26274 36234
L26256 36272
L26237 36290
L26199 36309
L26049 36309
" />
<path d="M26649 36497
L26424 36497
" />
<path d="M26537 36497
L26537 36103
L26499 36159
L26462 36197
L26424 36215
" />
<path d="M27024 36497
L26799 36497
" />
<path d="M26912 36497
L26912 36103
L26874 36159
L26837 36197
L26799 36215
" />
<path d="M29396 28642
L29396 28923
L29377 28980
L29340 29017
L29283 29036
L29246 29036
" />
<path d="M29583 29036
L29583 28642
L29733 28642
L29771 28661
L29790 28680
L29808 28717
L29808 28773
L29790 28811
L29771 28830
L29733 28848
L29583 28848
" />
<path d="M30146 28642
L30071 28642
L30033 28661
L30014 28680
L29977 28736
L29958 28811
L29958 28961
L29977 28998
L29996 29017
L30033 29036
L30108 29036
L30146 29017
L30164 28998
L30183 28961
L30183 28867
L30164 28830
L30146 28811
L30108 28792
L30033 28792
L29996 28811
L29977 28830
L29958 28867
" />
<path d="M55380 30000
L55380 30282
L55361 30338
L55324 30375
L55268 30394
L55230 30394
" />
<path d="M55736 30000
L55661 30000
L55624 30019
L55605 30038
L55568 30094
L55549 30169
L55549 30319
L55568 30357
L55586 30375
L55624 30394
L55699 30394
L55736 30375
L55755 30357
L55774 30319
L55774 30225
L55755 30188
L55736 30169
L55699 30150
L55624 30150
L55586 30169
L55568 30188
L55549 30225
" />
<path d="M53018 30591
L53018 30872
L52999 30928
L52962 30966
L52905 30985
L52868 30985
" />
<path d="M53205 30985
L53205 30591
L53355 30591
L53393 30610
L53412 30628
L53430 30666
L53430 30722
L53412 30760
L53393 30778
L53355 30797
L53205 30797
" />
<path d="M53655 30760
L53618 30741
L53599 30722
L53580 30685
L53580 30666
L53599 30628
L53618 30610
L53655 30591
L53730 30591
L53768 30610
L53787 30628
L53805 30666
L53805 30685
L53787 30722
L53768 30741
L53730 30760
L53655 30760
L53618 30778
L53599 30797
L53580 30835
L53580 30910
L53599 30947
L53618 30966
L53655 30985
L53730 30985
L53768 30966
L53787 30947
L53805 30910
L53805 30835
L53787 30797
L53768 30778
L53730 30760
" />
<path d="M53018 35512
L53018 35793
L52999 35850
L52962 35887
L52905 35906
L52868 35906
" />
<path d="M53205 35906
L53205 35512
L53355 35512
L53393 35531
L53412 35550
L53430 35587
L53430 35643
L53412 35681
L53393 35700
L53355 35718
L53205 35718
" />
<path d="M53618 35906
L53693 35906
L53730 35887
L53749 35868
L53787 35812
L53805 35737
L53805 35587
L53787 35550
L53768 35531
L53730 35512
L53655 35512
L53618 35531
L53599 35550
L53580 35587
L53580 35681
L53599 35718
L53618 35737
L53655 35756
L53730 35756
L53768 35737
L53787 35718
L53805 35681
" />
</g> 
</svg>
