<?xml version="1.0" standalone="no"?>
 <!DOCTYPE svg PUBLIC "-//W3C//DTD SVG 1.1//EN" 
 "http://www.w3.org/Graphics/SVG/1.1/DTD/svg11.dtd"> 
<svg xmlns="http://www.w3.org/2000/svg" version="1.1" 
    width="29.7002cm" height="21.0007cm" viewBox="0 0 116930 82680 ">
<title>SVG Picture created as KAmp_TPA3116D2-B.SilkS.svg date 2018/01/17 14:32:36 </title>
  <desc>Picture generated by PCBNEW </desc>
<g style="fill:#000000; fill-opacity:1;stroke:#000000; stroke-opacity:1;
stroke-linecap:round; stroke-linejoin:round; "
 transform="translate(0 0) scale(1 1)">
</g>
<g style="fill:#000000; fill-opacity:0.0; 
stroke:#000000; stroke-width:-0.000393701; stroke-opacity:1; 
stroke-linecap:round; stroke-linejoin:round;">
</g>
<g style="fill:#000000; fill-opacity:0.0; 
stroke:#000000; stroke-width:118.11; stroke-opacity:1; 
stroke-linecap:round; stroke-linejoin:round;">
<path d="M51040 30759
L51040 30168
L50815 30168
L50759 30196
L50731 30224
L50703 30281
L50703 30365
L50731 30421
L50759 30449
L50815 30478
L51040 30478
" />
<path d="M50253 30449
L50168 30478
L50140 30506
L50112 30562
L50112 30646
L50140 30703
L50168 30731
L50224 30759
L50449 30759
L50449 30168
L50253 30168
L50196 30196
L50168 30224
L50140 30281
L50140 30337
L50168 30393
L50196 30421
L50253 30449
L50449 30449
" />
<path d="M49943 30168
L49606 30168
" />
<path d="M49775 30759
L49775 30168
" />
<path d="M49128 30759
L49409 30759
L49409 30168
" />
<path d="M48931 30703
L48903 30731
L48931 30759
L48959 30731
L48931 30703
L48931 30759
" />
<path d="M48931 30393
L48903 30421
L48931 30449
L48959 30421
L48931 30393
L48931 30449
" />
<path d="M48031 30168
L48031 30590
L48059 30674
L48115 30731
L48200 30759
L48256 30759
" />
<path d="M47750 30759
L47750 30168
L47525 30168
L47469 30196
L47440 30224
L47412 30281
L47412 30365
L47440 30421
L47469 30449
L47525 30478
L47750 30478
" />
<path d="M46850 30759
L47187 30759
" />
<path d="M47019 30759
L47019 30168
L47075 30253
L47131 30309
L47187 30337
" />
<path d="M46569 30731
L46569 30759
L46597 30815
L46625 30843
" />
<path d="M45697 30168
L45697 30590
L45725 30674
L45781 30731
L45866 30759
L45922 30759
" />
<path d="M45416 30759
L45416 30168
L45191 30168
L45134 30196
L45106 30224
L45078 30281
L45078 30365
L45106 30421
L45134 30449
L45191 30478
L45416 30478
" />
<path d="M44853 30224
L44825 30196
L44769 30168
L44628 30168
L44572 30196
L44544 30224
L44516 30281
L44516 30337
L44544 30421
L44881 30759
L44516 30759
" />
<path d="M44235 30731
L44235 30759
L44263 30815
L44291 30843
" />
<path d="M43363 30168
L43363 30590
L43391 30674
L43447 30731
L43532 30759
L43588 30759
" />
<path d="M43082 30759
L43082 30168
L42857 30168
L42800 30196
L42772 30224
L42744 30281
L42744 30365
L42772 30421
L42800 30449
L42857 30478
L43082 30478
" />
<path d="M42407 30421
L42463 30393
L42491 30365
L42519 30309
L42519 30281
L42491 30224
L42463 30196
L42407 30168
L42294 30168
L42238 30196
L42210 30224
L42182 30281
L42182 30309
L42210 30365
L42238 30393
L42294 30421
L42407 30421
L42463 30449
L42491 30478
L42519 30534
L42519 30646
L42491 30703
L42463 30731
L42407 30759
L42294 30759
L42238 30731
L42210 30703
L42182 30646
L42182 30534
L42210 30478
L42238 30449
L42294 30421
" />
<path d="M41901 30731
L41901 30759
L41929 30815
L41957 30843
" />
<path d="M41029 30168
L41029 30590
L41057 30674
L41113 30731
L41197 30759
L41254 30759
" />
<path d="M40748 30759
L40748 30168
L40523 30168
L40466 30196
L40438 30224
L40410 30281
L40410 30365
L40438 30421
L40466 30449
L40523 30478
L40748 30478
" />
<path d="M40129 30759
L40016 30759
L39960 30731
L39932 30703
L39876 30618
L39848 30506
L39848 30281
L39876 30224
L39904 30196
L39960 30168
L40073 30168
L40129 30196
L40157 30224
L40185 30281
L40185 30421
L40157 30478
L40129 30506
L40073 30534
L39960 30534
L39904 30506
L39876 30478
L39848 30421
" />
<path d="M38892 30731
L38948 30759
L39060 30759
L39116 30731
L39145 30703
L39173 30646
L39173 30478
L39145 30421
L39116 30393
L39060 30365
L38948 30365
L38892 30393
" />
<path d="M38554 30759
L38610 30731
L38638 30674
L38638 30168
" />
<path d="M38245 30759
L38301 30731
L38329 30703
L38357 30646
L38357 30478
L38329 30421
L38301 30393
L38245 30365
L38160 30365
L38104 30393
L38076 30421
L38048 30478
L38048 30646
L38076 30703
L38104 30731
L38160 30759
L38245 30759
" />
<path d="M37823 30731
L37767 30759
L37654 30759
L37598 30731
L37570 30674
L37570 30646
L37598 30590
L37654 30562
L37739 30562
L37795 30534
L37823 30478
L37823 30449
L37795 30393
L37739 30365
L37654 30365
L37598 30393
" />
<path d="M37092 30731
L37148 30759
L37260 30759
L37317 30731
L37345 30674
L37345 30449
L37317 30393
L37260 30365
L37148 30365
L37092 30393
L37064 30449
L37064 30506
L37345 30562
" />
<path d="M36557 30759
L36557 30168
" />
<path d="M36557 30731
L36614 30759
L36726 30759
L36782 30731
L36811 30703
L36839 30646
L36839 30478
L36811 30421
L36782 30393
L36726 30365
L36614 30365
L36557 30393
" />
<path d="M51040 31763
L51040 31172
L50843 31594
L50646 31172
L50646 31763
" />
<path d="M50112 31763
L50112 31453
L50140 31397
L50196 31369
L50309 31369
L50365 31397
" />
<path d="M50112 31735
L50168 31763
L50309 31763
L50365 31735
L50393 31678
L50393 31622
L50365 31566
L50309 31538
L50168 31538
L50112 31510
" />
<path d="M49859 31735
L49803 31763
L49690 31763
L49634 31735
L49606 31678
L49606 31650
L49634 31594
L49690 31566
L49775 31566
L49831 31538
L49859 31482
L49859 31453
L49831 31397
L49775 31369
L49690 31369
L49634 31397
" />
<path d="M49437 31369
L49212 31369
" />
<path d="M49353 31172
L49353 31678
L49325 31735
L49268 31763
L49212 31763
" />
<path d="M48790 31735
L48847 31763
L48959 31763
L49015 31735
L49043 31678
L49043 31453
L49015 31397
L48959 31369
L48847 31369
L48790 31397
L48762 31453
L48762 31510
L49043 31566
" />
<path d="M48509 31763
L48509 31369
" />
<path d="M48509 31482
L48481 31425
L48453 31397
L48397 31369
L48340 31369
" />
<path d="M48143 31706
L48115 31735
L48143 31763
L48172 31735
L48143 31706
L48143 31763
" />
<path d="M48143 31397
L48115 31425
L48143 31453
L48172 31425
L48143 31397
L48143 31453
" />
<path d="M47075 31763
L47272 31482
" />
<path d="M47412 31763
L47412 31172
L47187 31172
L47131 31200
L47103 31228
L47075 31285
L47075 31369
L47103 31425
L47131 31453
L47187 31482
L47412 31482
" />
<path d="M46878 31172
L46484 31172
L46737 31763
" />
<path d="M45809 31453
L45359 31453
" />
<path d="M45359 31622
L45809 31622
" />
<path d="M44319 31763
L44656 31763
" />
<path d="M44488 31763
L44488 31172
L44544 31257
L44600 31313
L44656 31341
" />
<path d="M43953 31172
L43897 31172
L43841 31200
L43813 31228
L43785 31285
L43757 31397
L43757 31538
L43785 31650
L43813 31706
L43841 31735
L43897 31763
L43953 31763
L44010 31735
L44038 31706
L44066 31650
L44094 31538
L44094 31397
L44066 31285
L44038 31228
L44010 31200
L43953 31172
" />
<path d="M43391 31172
L43335 31172
L43278 31200
L43250 31228
L43222 31285
L43194 31397
L43194 31538
L43222 31650
L43250 31706
L43278 31735
L43335 31763
L43391 31763
L43447 31735
L43475 31706
L43503 31650
L43532 31538
L43532 31397
L43503 31285
L43475 31228
L43447 31200
L43391 31172
" />
<path d="M42941 31763
L42941 31172
" />
<path d="M42604 31763
L42857 31425
" />
<path d="M42604 31172
L42941 31510
" />
<path d="M42322 31735
L42322 31763
L42350 31819
L42379 31847
" />
<path d="M41282 31763
L41479 31482
" />
<path d="M41619 31763
L41619 31172
L41394 31172
L41338 31200
L41310 31228
L41282 31285
L41282 31369
L41310 31425
L41338 31453
L41394 31482
L41619 31482
" />
<path d="M41085 31172
L40719 31172
L40916 31397
L40832 31397
L40776 31425
L40748 31453
L40719 31510
L40719 31650
L40748 31706
L40776 31735
L40832 31763
L41001 31763
L41057 31735
L41085 31706
" />
<path d="M40016 31453
L39566 31453
" />
<path d="M39566 31622
L40016 31622
" />
<path d="M38892 31172
L38526 31172
L38723 31397
L38638 31397
L38582 31425
L38554 31453
L38526 31510
L38526 31650
L38554 31706
L38582 31735
L38638 31763
L38807 31763
L38863 31735
L38892 31706
" />
<path d="M38245 31763
L38132 31763
L38076 31735
L38048 31706
L37992 31622
L37964 31510
L37964 31285
L37992 31228
L38020 31200
L38076 31172
L38188 31172
L38245 31200
L38273 31228
L38301 31285
L38301 31425
L38273 31482
L38245 31510
L38188 31538
L38076 31538
L38020 31510
L37992 31482
L37964 31425
" />
<path d="M37710 31763
L37710 31172
" />
<path d="M37373 31763
L37626 31425
" />
<path d="M37373 31172
L37710 31510
" />
<path d="M51068 32739
L50984 32767
L50843 32767
L50787 32739
L50759 32710
L50731 32654
L50731 32598
L50759 32542
L50787 32514
L50843 32485
L50956 32457
L51012 32429
L51040 32401
L51068 32345
L51068 32289
L51040 32232
L51012 32204
L50956 32176
L50815 32176
L50731 32204
" />
<path d="M50393 32767
L50449 32739
L50478 32682
L50478 32176
" />
<path d="M49915 32767
L49915 32457
L49943 32401
L50000 32373
L50112 32373
L50168 32401
" />
<path d="M49915 32739
L49971 32767
L50112 32767
L50168 32739
L50196 32682
L50196 32626
L50168 32570
L50112 32542
L49971 32542
L49915 32514
" />
<path d="M49690 32373
L49550 32767
L49409 32373
" />
<path d="M48959 32739
L49015 32767
L49128 32767
L49184 32739
L49212 32682
L49212 32457
L49184 32401
L49128 32373
L49015 32373
L48959 32401
L48931 32457
L48931 32514
L49212 32570
" />
<path d="M48678 32710
L48650 32739
L48678 32767
L48706 32739
L48678 32710
L48678 32767
" />
<path d="M48678 32401
L48650 32429
L48678 32457
L48706 32429
L48678 32401
L48678 32457
" />
<path d="M47609 32767
L47806 32485
" />
<path d="M47947 32767
L47947 32176
L47722 32176
L47665 32204
L47637 32232
L47609 32289
L47609 32373
L47637 32429
L47665 32457
L47722 32485
L47947 32485
" />
<path d="M47412 32176
L47019 32176
L47272 32767
" />
<path d="M46344 32457
L45894 32457
" />
<path d="M45894 32626
L46344 32626
" />
<path d="M45219 32176
L44853 32176
L45050 32401
L44966 32401
L44910 32429
L44881 32457
L44853 32514
L44853 32654
L44881 32710
L44910 32739
L44966 32767
L45134 32767
L45191 32739
L45219 32710
" />
<path d="M44572 32767
L44460 32767
L44403 32739
L44375 32710
L44319 32626
L44291 32514
L44291 32289
L44319 32232
L44347 32204
L44403 32176
L44516 32176
L44572 32204
L44600 32232
L44628 32289
L44628 32429
L44600 32485
L44572 32514
L44516 32542
L44403 32542
L44347 32514
L44319 32485
L44291 32429
" />
<path d="M44038 32767
L44038 32176
" />
<path d="M43700 32767
L43953 32429
" />
<path d="M43700 32176
L44038 32514
" />
<path d="M43419 32739
L43419 32767
L43447 32823
L43475 32851
" />
<path d="M42379 32767
L42575 32485
" />
<path d="M42716 32767
L42716 32176
L42491 32176
L42435 32204
L42407 32232
L42379 32289
L42379 32373
L42407 32429
L42435 32457
L42491 32485
L42716 32485
" />
<path d="M42182 32176
L41816 32176
L42013 32401
L41929 32401
L41872 32429
L41844 32457
L41816 32514
L41816 32654
L41844 32710
L41872 32739
L41929 32767
L42097 32767
L42154 32739
L42182 32710
" />
<path d="M41113 32457
L40663 32457
" />
<path d="M40663 32626
L41113 32626
" />
<path d="M39623 32767
L39960 32767
" />
<path d="M39791 32767
L39791 32176
L39848 32260
L39904 32317
L39960 32345
" />
<path d="M39257 32176
L39201 32176
L39145 32204
L39116 32232
L39088 32289
L39060 32401
L39060 32542
L39088 32654
L39116 32710
L39145 32739
L39201 32767
L39257 32767
L39313 32739
L39341 32710
L39370 32654
L39398 32542
L39398 32401
L39370 32289
L39341 32232
L39313 32204
L39257 32176
" />
<path d="M38695 32176
L38638 32176
L38582 32204
L38554 32232
L38526 32289
L38498 32401
L38498 32542
L38526 32654
L38554 32710
L38582 32739
L38638 32767
L38695 32767
L38751 32739
L38779 32710
L38807 32654
L38835 32542
L38835 32401
L38807 32289
L38779 32232
L38751 32204
L38695 32176
" />
<path d="M38245 32767
L38245 32176
" />
<path d="M37907 32767
L38160 32429
" />
<path d="M37907 32176
L38245 32514
" />
</g> 
</svg>
